<?xml version="1.0" encoding="UTF-8"?>
<svg id="Layer_2" data-name="Layer 2" xmlns="http://www.w3.org/2000/svg" xmlns:xlink="http://www.w3.org/1999/xlink" viewBox="0 0 348.69 200">
  <defs>
    <style>
      .cls-1 {
        stroke: #4198ff;
        stroke-width: 14.15px;
      }

      .cls-1, .cls-2, .cls-3, .cls-4, .cls-5, .cls-6, .cls-7, .cls-8, .cls-9, .cls-10, .cls-11, .cls-12, .cls-13, .cls-14, .cls-15, .cls-16, .cls-17, .cls-18, .cls-19, .cls-20, .cls-21, .cls-22, .cls-23, .cls-24, .cls-25, .cls-26, .cls-27, .cls-28, .cls-29, .cls-30, .cls-31, .cls-32, .cls-33, .cls-34, .cls-35, .cls-36, .cls-37, .cls-38, .cls-39, .cls-40, .cls-41, .cls-42, .cls-43, .cls-44, .cls-45, .cls-46, .cls-47, .cls-48, .cls-49, .cls-50, .cls-51, .cls-52, .cls-53, .cls-54, .cls-55, .cls-56, .cls-57, .cls-58, .cls-59, .cls-60, .cls-61, .cls-62, .cls-63, .cls-64, .cls-65, .cls-66, .cls-67, .cls-68, .cls-69, .cls-70, .cls-71, .cls-72, .cls-73, .cls-74, .cls-75, .cls-76, .cls-77, .cls-78, .cls-79, .cls-80, .cls-81, .cls-82, .cls-83, .cls-84, .cls-85, .cls-86, .cls-87, .cls-88, .cls-89, .cls-90, .cls-91, .cls-92, .cls-93, .cls-94, .cls-95, .cls-96, .cls-97, .cls-98, .cls-99, .cls-100, .cls-101, .cls-102, .cls-103, .cls-104, .cls-105, .cls-106, .cls-107, .cls-108, .cls-109, .cls-110, .cls-111, .cls-112, .cls-113, .cls-114, .cls-115, .cls-116, .cls-117, .cls-118, .cls-119, .cls-120, .cls-121, .cls-122, .cls-123 {
        fill: none;
      }

      .cls-1, .cls-2, .cls-3, .cls-4, .cls-5, .cls-6, .cls-7, .cls-8, .cls-9, .cls-10, .cls-11, .cls-12, .cls-13, .cls-14, .cls-16, .cls-17, .cls-18, .cls-19, .cls-20, .cls-21, .cls-22, .cls-23, .cls-24, .cls-25, .cls-26, .cls-27, .cls-28, .cls-29, .cls-30, .cls-31, .cls-32, .cls-33, .cls-34, .cls-35, .cls-36, .cls-37, .cls-38, .cls-39, .cls-40, .cls-41, .cls-42, .cls-43, .cls-44, .cls-45, .cls-46, .cls-47, .cls-48, .cls-49, .cls-50, .cls-51, .cls-52, .cls-53, .cls-54, .cls-55, .cls-56, .cls-57, .cls-58, .cls-59, .cls-60, .cls-61, .cls-62, .cls-63, .cls-64, .cls-65, .cls-66, .cls-67, .cls-68, .cls-69, .cls-70, .cls-71, .cls-72, .cls-73, .cls-74, .cls-75, .cls-76, .cls-77, .cls-78, .cls-79, .cls-80, .cls-81, .cls-82, .cls-83, .cls-84, .cls-85, .cls-86, .cls-87, .cls-88, .cls-89, .cls-90, .cls-91, .cls-92, .cls-93, .cls-94, .cls-96, .cls-97, .cls-98, .cls-99, .cls-100, .cls-102, .cls-103, .cls-104, .cls-105, .cls-106, .cls-107, .cls-108, .cls-109, .cls-110, .cls-111, .cls-112, .cls-113, .cls-114, .cls-115, .cls-116, .cls-117, .cls-118, .cls-119, .cls-120, .cls-121, .cls-122, .cls-123 {
        stroke-miterlimit: 10;
      }

      .cls-2 {
        stroke: #41d8ff;
        stroke-width: 29.73px;
      }

      .cls-3 {
        stroke: #419bff;
        stroke-width: 14.87px;
      }

      .cls-4 {
        stroke: #41d7ff;
        stroke-width: 29.49px;
      }

      .cls-5 {
        stroke: #4190ff;
        stroke-width: 12.23px;
      }

      .cls-6 {
        stroke: #41d1ff;
        stroke-width: 28.05px;
      }

      .cls-7 {
        stroke: #41d0ff;
        stroke-width: 27.81px;
      }

      .cls-8 {
        stroke: #418dff;
        stroke-width: 11.51px;
      }

      .cls-9 {
        stroke: #41bcff;
        stroke-width: 23.02px;
      }

      .cls-10 {
        stroke: #41c3ff;
        stroke-width: 24.69px;
      }

      .cls-11 {
        stroke: #41c2ff;
        stroke-width: 24.45px;
      }

      .cls-12 {
        stroke: #418eff;
        stroke-width: 11.75px;
      }

      .cls-13 {
        stroke: #4176ff;
        stroke-width: 6px;
      }

      .cls-14 {
        stroke: #41bdff;
        stroke-width: 23.26px;
      }

      .cls-124 {
        clip-path: url(#clippath);
      }

      .cls-15 {
        stroke-width: 0px;
      }

      .cls-16 {
        stroke: #41e6ff;
        stroke-width: 33.08px;
      }

      .cls-17 {
        stroke: #41e7ff;
        stroke-width: 33.32px;
      }

      .cls-18 {
        stroke: #41e0ff;
        stroke-width: 31.64px;
      }

      .cls-19 {
        stroke: #419fff;
        stroke-width: 15.83px;
      }

      .cls-20 {
        stroke: #41e5ff;
        stroke-width: 32.84px;
      }

      .cls-21 {
        stroke: #41dfff;
        stroke-width: 31.4px;
      }

      .cls-22 {
        stroke: #41d9ff;
        stroke-width: 29.97px;
      }

      .cls-23 {
        stroke: #417dff;
        stroke-width: 7.68px;
      }

      .cls-24 {
        stroke: #41abff;
        stroke-width: 18.7px;
      }

      .cls-25 {
        stroke: #4184ff;
        stroke-width: 9.36px;
      }

      .cls-26 {
        stroke: #41aaff;
        stroke-width: 18.46px;
      }

      .cls-27 {
        stroke: #419cff;
        stroke-width: 15.11px;
      }

      .cls-28 {
        stroke: #41daff;
        stroke-width: 30.21px;
      }

      .cls-29 {
        stroke: #41a5ff;
        stroke-width: 17.26px;
      }

      .cls-30 {
        stroke: #4181ff;
        stroke-width: 8.64px;
      }

      .cls-31 {
        stroke: #41a4ff;
        stroke-width: 17.02px;
      }

      .cls-32 {
        stroke: #41c0ff;
        stroke-width: 23.98px;
      }

      .cls-33 {
        stroke: #418fff;
        stroke-width: 11.99px;
      }

      .cls-34 {
        stroke: #41c6ff;
        stroke-width: 25.41px;
      }

      .cls-35 {
        stroke: #4192ff;
        stroke-width: 12.71px;
      }

      .cls-36 {
        stroke: #41c5ff;
        stroke-width: 25.17px;
      }

      .cls-37 {
        stroke: #41d6ff;
        stroke-width: 29.25px;
      }

      .cls-38 {
        stroke: #41c1ff;
        stroke-width: 24.21px;
      }

      .cls-39 {
        stroke: #41c7ff;
        stroke-width: 25.65px;
      }

      .cls-40 {
        stroke: #4177ff;
        stroke-width: 6.24px;
      }

      .cls-41 {
        stroke-width: 20.38px;
      }

      .cls-41, .cls-48 {
        stroke: #41b2ff;
      }

      .cls-42 {
        stroke: #4188ff;
        stroke-width: 10.31px;
      }

      .cls-43 {
        stroke: #41b1ff;
        stroke-width: 20.14px;
      }

      .cls-44 {
        stroke: #41adff;
        stroke-width: 19.18px;
      }

      .cls-45 {
        stroke: #41aeff;
        stroke-width: 19.42px;
      }

      .cls-46 {
        stroke: #4185ff;
        stroke-width: 9.6px;
      }

      .cls-47 {
        stroke: #41acff;
        stroke-width: 18.94px;
      }

      .cls-48 {
        stroke-width: 20.62px;
      }

      .cls-49 {
        stroke: #4193ff;
        stroke-width: 12.95px;
      }

      .cls-50 {
        stroke: #4196ff;
        stroke-width: 13.67px;
      }

      .cls-51 {
        stroke: #41ceff;
        stroke-width: 27.33px;
      }

      .cls-52 {
        stroke: #4197ff;
        stroke-width: 13.91px;
      }

      .cls-53 {
        stroke: #41c9ff;
        stroke-width: 26.13px;
      }

      .cls-54 {
        stroke: #417aff;
        stroke-width: 6.96px;
      }

      .cls-55 {
        stroke: #41c8ff;
        stroke-width: 25.89px;
      }

      .cls-56 {
        stroke: #41cfff;
        stroke-width: 27.57px;
      }

      .cls-57 {
        stroke: #41d4ff;
        stroke-width: 28.77px;
      }

      .cls-58 {
        stroke: #41dcff;
        stroke-width: 30.69px;
      }

      .cls-59 {
        stroke: #41dbff;
        stroke-width: 30.45px;
      }

      .cls-60 {
        stroke: #419aff;
        stroke-width: 14.63px;
      }

      .cls-61 {
        stroke: #41d5ff;
        stroke-width: 29.01px;
      }

      .cls-62 {
        stroke: #419dff;
        stroke-width: 15.35px;
      }

      .cls-63 {
        stroke: #417cff;
        stroke-width: 7.44px;
      }

      .cls-64 {
        stroke: #41b6ff;
        stroke-width: 21.58px;
      }

      .cls-65 {
        stroke: #41b5ff;
        stroke-width: 21.34px;
      }

      .cls-66 {
        stroke: #41ecff;
        stroke-width: 34.52px;
      }

      .cls-67 {
        stroke: #41b0ff;
        stroke-width: 19.9px;
      }

      .cls-68 {
        stroke: #4187ff;
        stroke-width: 10.07px;
      }

      .cls-69 {
        stroke: #41a3ff;
        stroke-width: 16.79px;
      }

      .cls-70 {
        stroke: #417eff;
        stroke-width: 7.92px;
      }

      .cls-71 {
        stroke: #41e1ff;
        stroke-width: 31.88px;
      }

      .cls-72 {
        stroke: #41a0ff;
        stroke-width: 16.07px;
      }

      .cls-73 {
        stroke: #41a2ff;
        stroke-width: 16.55px;
      }

      .cls-74 {
        stroke: #4180ff;
        stroke-width: 8.4px;
      }

      .cls-75 {
        stroke: #41eeff;
        stroke-width: 35px;
      }

      .cls-76 {
        stroke: #41edff;
        stroke-width: 34.76px;
      }

      .cls-77 {
        stroke: #41e4ff;
        stroke-width: 32.6px;
      }

      .cls-78 {
        stroke: #41e2ff;
        stroke-width: 32.12px;
      }

      .cls-79 {
        stroke: #419eff;
        stroke-width: 15.59px;
      }

      .cls-80 {
        stroke: #41e3ff;
        stroke-width: 32.36px;
      }

      .cls-81 {
        stroke: #41deff;
        stroke-width: 31.17px;
      }

      .cls-82 {
        stroke: #41ddff;
        stroke-width: 30.93px;
      }

      .cls-83 {
        stroke: #41bfff;
        stroke-width: 23.74px;
      }

      .cls-84 {
        stroke: #41beff;
        stroke-width: 23.5px;
      }

      .cls-85 {
        stroke: #41caff;
        stroke-width: 26.37px;
      }

      .cls-86 {
        stroke: #41b8ff;
        stroke-width: 22.06px;
      }

      .cls-87 {
        stroke: #418bff;
        stroke-width: 11.03px;
      }

      .cls-88 {
        stroke: #41b7ff;
        stroke-width: 21.82px;
      }

      .cls-89 {
        stroke: #4191ff;
        stroke-width: 12.47px;
      }

      .cls-90 {
        stroke: #4179ff;
        stroke-width: 6.72px;
      }

      .cls-91 {
        stroke: #41cbff;
        stroke-width: 26.61px;
      }

      .cls-92 {
        stroke: #4194ff;
        stroke-width: 13.19px;
      }

      .cls-93 {
        stroke: #4178ff;
        stroke-width: 6.48px;
      }

      .cls-94 {
        stroke: #41c4ff;
        stroke-width: 24.93px;
      }

      .cls-95 {
        stroke: #41e8ff;
        stroke-width: 33.56px;
      }

      .cls-95, .cls-101 {
        stroke-miterlimit: 10;
      }

      .cls-96 {
        stroke: #4182ff;
        stroke-width: 8.88px;
      }

      .cls-97 {
        stroke: #41a6ff;
        stroke-width: 17.5px;
      }

      .cls-98 {
        stroke: #41b3ff;
        stroke-width: 20.86px;
      }

      .cls-99 {
        stroke: #41d2ff;
        stroke-width: 28.29px;
      }

      .cls-100 {
        stroke: #417fff;
        stroke-width: 8.16px;
      }

      .cls-101 {
        stroke: #41ebff;
        stroke-width: 34.28px;
      }

      .cls-102 {
        stroke: #41eaff;
        stroke-width: 34.04px;
      }

      .cls-103 {
        stroke: #41e9ff;
        stroke-width: 33.8px;
      }

      .cls-104 {
        stroke: #41a7ff;
        stroke-width: 17.74px;
      }

      .cls-105 {
        stroke: #417bff;
        stroke-width: 7.2px;
      }

      .cls-106 {
        stroke: #41d3ff;
        stroke-width: 28.53px;
      }

      .cls-107 {
        stroke: #4199ff;
        stroke-width: 14.39px;
      }

      .cls-108 {
        stroke: #41a1ff;
        stroke-width: 16.31px;
      }

      .cls-109 {
        stroke: #41cdff;
        stroke-width: 27.09px;
      }

      .cls-110 {
        stroke: #4195ff;
        stroke-width: 13.43px;
      }

      .cls-111 {
        stroke: #41ccff;
        stroke-width: 26.85px;
      }

      .cls-112 {
        stroke: #41afff;
        stroke-width: 19.66px;
      }

      .cls-113 {
        stroke: #4186ff;
        stroke-width: 9.83px;
      }

      .cls-114 {
        stroke: #41b9ff;
        stroke-width: 22.3px;
      }

      .cls-115 {
        stroke: #41a9ff;
        stroke-width: 18.22px;
      }

      .cls-116 {
        stroke: #4183ff;
        stroke-width: 9.12px;
      }

      .cls-117 {
        stroke: #41a8ff;
        stroke-width: 17.98px;
      }

      .cls-118 {
        stroke: #41baff;
        stroke-width: 22.54px;
      }

      .cls-119 {
        stroke: #41bbff;
        stroke-width: 22.78px;
      }

      .cls-120 {
        stroke: #418cff;
        stroke-width: 11.27px;
      }

      .cls-121 {
        stroke: #418aff;
        stroke-width: 10.79px;
      }

      .cls-122 {
        stroke: #41b4ff;
        stroke-width: 21.1px;
      }

      .cls-123 {
        stroke: #4189ff;
        stroke-width: 10.55px;
      }
    </style>
    <clipPath id="clippath">
      <rect class="cls-15" width="348.69" height="200"/>
    </clipPath>
  </defs>
  <g id="Layer_1-2" data-name="Layer 1">
    <g class="cls-124">
      <g>
        <path class="cls-75" d="m84.01,222.16s-14.35-57.17,30.84-64.94c45.19-7.77,40.06-30.68,52.42-51.79,12.36-21.12,51.08-3.2,72.23,7.43"/>
        <path class="cls-76" d="m82.92,222.18s-13.66-57.8,31.67-65.13c45.32-7.33,40.64-30.53,53.28-51.69,12.65-21.16,51.49-2.75,72.69,8.16"/>
        <path class="cls-66" d="m81.83,222.21s-12.96-58.43,32.49-65.32c45.45-6.89,41.21-30.39,54.15-51.58,12.93-21.2,51.89-2.3,73.15,8.88"/>
        <path class="cls-101" d="m80.74,222.23s-12.26-59.05,33.32-65.51c45.58-6.46,41.79-30.24,55.01-51.48,13.22-21.24,52.3-1.85,73.61,9.6"/>
        <path class="cls-102" d="m79.66,222.25s-11.56-59.68,34.15-65.7c45.71-6.02,42.37-30.09,55.88-51.37,13.51-21.28,52.7-1.4,74.07,10.33"/>
        <path class="cls-103" d="m78.57,222.28s-10.87-60.31,34.98-65.89c45.84-5.59,42.95-29.95,56.74-51.27,13.79-21.32,53.1-.95,74.54,11.05"/>
        <path class="cls-95" d="m77.48,222.3s-10.17-60.93,35.8-66.08c45.97-5.15,43.53-29.8,57.6-51.16,14.08-21.36,53.51-.5,75,11.78"/>
        <path class="cls-17" d="m76.39,222.33s-9.47-61.56,36.63-66.27c46.1-4.71,44.1-29.66,58.47-51.05,14.36-21.4,53.91-.05,75.46,12.5"/>
        <path class="cls-16" d="m75.3,222.35s-8.78-62.19,37.46-66.46c46.24-4.28,44.68-29.51,59.33-50.95s54.32.4,75.92,13.22"/>
        <path class="cls-20" d="m74.22,222.37s-8.08-62.81,38.29-66.65c46.37-3.84,45.26-29.36,60.2-50.84,14.94-21.48,54.72.85,76.38,13.95"/>
        <path class="cls-77" d="m73.13,222.4s-7.38-63.44,39.12-66.84c46.5-3.4,45.84-29.22,61.06-50.74,15.22-21.52,55.13,1.3,76.84,14.67"/>
        <path class="cls-80" d="m72.04,222.42s-6.68-64.07,39.94-67.03c46.63-2.97,46.42-29.07,61.93-50.63,15.51-21.56,55.53,1.75,77.3,15.39"/>
        <path class="cls-78" d="m70.95,222.44s-5.99-64.69,40.77-67.23c46.76-2.53,47-28.93,62.79-50.53,15.8-21.6,55.93,2.2,77.76,16.12"/>
        <path class="cls-71" d="m69.86,222.47s-5.29-65.32,41.6-67.42c46.89-2.1,47.57-28.78,63.65-50.42s56.34,2.65,78.22,16.84"/>
        <path class="cls-18" d="m68.78,222.49s-4.59-65.95,42.43-67.61c47.02-1.66,48.15-28.63,64.52-50.31,16.37-21.68,56.74,3.1,78.68,17.57"/>
        <path class="cls-21" d="m67.69,222.51s-3.9-66.57,43.25-67.8,48.73-28.49,65.38-50.21c16.65-21.72,57.15,3.55,79.14,18.29"/>
        <path class="cls-81" d="m66.6,222.54s-3.2-67.2,44.08-67.99c47.28-.79,49.31-28.34,66.25-50.1s57.55,4,79.61,19.01"/>
        <path class="cls-82" d="m65.51,222.56s-2.5-67.83,44.91-68.18c47.41-.35,49.89-28.2,67.11-50,17.23-21.8,57.96,4.45,80.07,19.74"/>
        <path class="cls-58" d="m64.42,222.58s-1.8-68.45,45.74-68.37c47.54.08,50.46-28.05,67.98-49.89s58.36,4.9,80.53,20.46"/>
        <path class="cls-59" d="m63.33,222.61s-1.11-69.08,46.57-68.56,51.04-27.9,68.84-49.79c17.8-21.88,58.76,5.35,80.99,21.18"/>
        <path class="cls-28" d="m62.25,222.63s-.41-69.71,47.39-68.75,51.62-27.76,69.7-49.68c18.09-21.92,59.17,5.8,81.45,21.91"/>
        <path class="cls-22" d="m61.16,222.65s.29-70.33,48.22-68.94c47.93,1.39,52.2-27.61,70.57-49.57,18.37-21.96,59.57,6.25,81.91,22.63"/>
        <path class="cls-2" d="m60.07,222.68s.98-70.96,49.05-69.13c48.06,1.83,52.78-27.46,71.43-49.47s59.98,6.7,82.37,23.35"/>
        <path class="cls-4" d="m58.98,222.7s1.68-71.59,49.88-69.32,53.35-27.32,72.3-49.36c18.94-22.04,60.38,7.15,82.83,24.08"/>
        <path class="cls-37" d="m57.89,222.72s2.38-72.21,50.7-69.51c48.33,2.7,53.93-27.17,73.16-49.26,19.23-22.08,60.79,7.6,83.29,24.8"/>
        <path class="cls-61" d="m56.81,222.75s3.08-72.84,51.53-69.7c48.46,3.14,54.51-27.03,74.03-49.15,19.52-22.13,61.19,8.05,83.75,25.53"/>
        <path class="cls-57" d="m55.72,222.77s3.77-73.47,52.36-69.89c48.59,3.57,55.09-26.88,74.89-49.05,19.8-22.17,61.59,8.5,84.21,26.25"/>
        <path class="cls-106" d="m54.63,222.79s4.47-74.09,53.19-70.08c48.72,4.01,55.67-26.73,75.76-48.94s62,8.95,84.68,26.97"/>
        <path class="cls-99" d="m53.54,222.82s5.17-74.72,54.02-70.27,56.24-26.59,76.62-48.83,62.4,9.4,85.14,27.7"/>
        <path class="cls-6" d="m52.45,222.84s5.86-75.35,54.84-70.47,56.82-26.44,77.48-48.73c20.66-22.29,62.81,9.85,85.6,28.42"/>
        <path class="cls-7" d="m51.36,222.86s6.56-75.97,55.67-70.66c49.11,5.32,57.4-26.3,78.35-48.62,20.95-22.33,63.21,10.3,86.06,29.14"/>
        <path class="cls-56" d="m50.28,222.89s7.26-76.6,56.5-70.85c49.24,5.75,57.98-26.15,79.21-48.52,21.23-22.37,63.62,10.75,86.52,29.87"/>
        <path class="cls-51" d="m49.19,222.91s7.96-77.23,57.33-71.04c49.37,6.19,58.56-26,80.08-48.41,21.52-22.41,64.02,11.2,86.98,30.59"/>
        <path class="cls-109" d="m48.1,222.94s8.65-77.85,58.15-71.23c49.5,6.62,59.13-25.86,80.94-48.31,21.81-22.45,64.42,11.65,87.44,31.32"/>
        <path class="cls-111" d="m47.01,222.96s9.35-78.48,58.98-71.42c49.63,7.06,59.71-25.71,81.81-48.2,22.09-22.49,64.83,12.1,87.9,32.04"/>
        <path class="cls-91" d="m45.92,222.98s10.05-79.11,59.81-71.61c49.76,7.5,60.29-25.57,82.67-48.09,22.38-22.53,65.23,12.55,88.36,32.76"/>
        <path class="cls-85" d="m44.84,223.01s10.74-79.73,60.64-71.8c49.89,7.93,60.87-25.42,83.53-47.99s65.64,13,88.82,33.49"/>
        <path class="cls-53" d="m43.75,223.03s11.44-80.36,61.47-71.99c50.02,8.37,61.45-25.27,84.4-47.88,22.95-22.61,66.04,13.45,89.28,34.21"/>
        <path class="cls-55" d="m42.66,223.05s12.14-80.99,62.29-72.18c50.16,8.81,62.02-25.13,85.26-47.78,23.24-22.65,66.45,13.9,89.75,34.93"/>
        <path class="cls-39" d="m41.57,223.08s12.84-81.61,63.12-72.37c50.29,9.24,62.6-24.98,86.13-47.67s66.85,14.35,90.21,35.66"/>
        <path class="cls-34" d="m40.48,223.1s13.53-82.24,63.95-72.56c50.42,9.68,63.18-24.83,86.99-47.57,23.81-22.73,67.25,14.8,90.67,36.38"/>
        <path class="cls-36" d="m39.4,223.12s14.23-82.87,64.78-72.75c50.55,10.11,63.76-24.69,87.86-47.46,24.1-22.77,67.66,15.25,91.13,37.1"/>
        <path class="cls-94" d="m38.31,223.15s14.93-83.49,65.6-72.94c50.68,10.55,64.34-24.54,88.72-47.35,24.38-22.81,68.06,15.7,91.59,37.83"/>
        <path class="cls-10" d="m37.22,223.17s15.62-84.12,66.43-73.13c50.81,10.99,64.91-24.4,89.58-47.25s68.47,16.15,92.05,38.55"/>
        <path class="cls-11" d="m36.13,223.19s16.32-84.75,67.26-73.32c50.94,11.42,65.49-24.25,90.45-47.14,24.96-22.89,68.87,16.6,92.51,39.28"/>
        <path class="cls-38" d="m35.04,223.22s17.02-85.37,68.09-73.51c51.07,11.86,66.07-24.1,91.31-47.04,25.24-22.93,69.28,17.05,92.97,40"/>
        <path class="cls-32" d="m33.95,223.24s17.72-86,68.92-73.71c51.2,12.29,66.65-23.96,92.18-46.93,25.53-22.97,69.68,17.5,93.43,40.72"/>
        <path class="cls-83" d="m32.87,223.26s18.41-86.63,69.74-73.9c51.33,12.73,67.23-23.81,93.04-46.82s70.08,17.95,93.89,41.45"/>
        <path class="cls-84" d="m31.78,223.29s19.11-87.25,70.57-74.09c51.46,13.17,67.8-23.67,93.91-46.72s70.49,18.4,94.35,42.17"/>
        <path class="cls-14" d="m30.69,223.31s19.81-87.88,71.4-74.28c51.59,13.6,68.38-23.52,94.77-46.61s70.89,18.85,94.81,42.89"/>
        <path class="cls-9" d="m29.6,223.33s20.5-88.51,72.23-74.47c51.72,14.04,68.96-23.37,95.63-46.51s71.3,19.3,95.28,43.62"/>
        <path class="cls-119" d="m28.51,223.36s21.2-89.13,73.05-74.66c51.85,14.47,69.54-23.23,96.5-46.4s71.7,19.74,95.74,44.34"/>
        <path class="cls-118" d="m27.43,223.38s21.9-89.76,73.88-74.85c51.98,14.91,70.12-23.08,97.36-46.3,27.25-23.21,72.11,20.19,96.2,45.07"/>
        <path class="cls-114" d="m26.34,223.4s22.6-90.39,74.71-75.04c52.12,15.35,70.69-22.94,98.23-46.19s72.51,20.64,96.66,45.79"/>
        <path class="cls-86" d="m25.25,223.43s23.29-91.01,75.54-75.23c52.25,15.78,71.27-22.79,99.09-46.08,27.82-23.3,72.91,21.09,97.12,46.51"/>
        <path class="cls-88" d="m24.16,223.45s23.99-91.64,76.37-75.42c52.38,16.22,71.85-22.64,99.96-45.98,28.11-23.34,73.32,21.54,97.58,47.24"/>
        <path class="cls-64" d="m23.07,223.47s24.69-92.27,77.19-75.61c52.51,16.65,72.43-22.5,100.82-45.87,28.39-23.38,73.72,21.99,98.04,47.96"/>
        <path class="cls-65" d="m21.99,223.5s25.38-92.89,78.02-75.8c52.64,17.09,73.01-22.35,101.68-45.77,28.68-23.42,74.13,22.44,98.5,48.68"/>
        <path class="cls-122" d="m20.9,223.52s26.08-93.52,78.85-75.99c52.77,17.53,73.58-22.2,102.55-45.66,28.96-23.46,74.53,22.89,98.96,49.41"/>
        <path class="cls-98" d="m19.81,223.55s26.78-94.15,79.68-76.18c52.9,17.96,74.16-22.06,103.41-45.56,29.25-23.5,74.94,23.34,99.42,50.13"/>
        <path class="cls-48" d="m18.72,223.57s27.48-94.77,80.5-76.37c53.03,18.4,74.74-21.91,104.28-45.45,29.54-23.54,75.34,23.79,99.88,50.85"/>
        <path class="cls-41" d="m17.63,223.59s28.17-95.4,81.33-76.56c53.16,18.84,75.32-21.77,105.14-45.34,29.82-23.58,75.74,24.24,100.35,51.58"/>
        <path class="cls-43" d="m16.54,223.62s28.87-96.03,82.16-76.76c53.29,19.27,75.9-21.62,106.01-45.24,30.11-23.62,76.15,24.69,100.81,52.3"/>
        <path class="cls-67" d="m15.46,223.64s29.57-96.65,82.99-76.95c53.42,19.71,76.47-21.47,106.87-45.13,30.4-23.66,76.55,25.14,101.27,53.03"/>
        <path class="cls-112" d="m14.37,223.66s30.26-97.28,83.82-77.14c53.55,20.14,77.05-21.33,107.73-45.03,30.68-23.7,76.96,25.59,101.73,53.75"/>
        <path class="cls-45" d="m13.28,223.69s30.96-97.91,84.64-77.33c53.68,20.58,77.63-21.18,108.6-44.92,30.97-23.74,77.36,26.04,102.19,54.47"/>
        <path class="cls-44" d="m12.19,223.71s31.66-98.53,85.47-77.52c53.81,21.02,78.21-21.04,109.46-44.82,31.25-23.78,77.77,26.49,102.65,55.2"/>
        <path class="cls-47" d="m11.1,223.73s32.36-99.16,86.3-77.71c53.94,21.45,78.79-20.89,110.33-44.71s78.17,26.94,103.11,55.92"/>
        <path class="cls-24" d="m10.02,223.76s33.05-99.79,87.13-77.9c54.08,21.89,79.36-20.74,111.19-44.6,31.83-23.86,78.57,27.39,103.57,56.64"/>
        <path class="cls-26" d="m8.93,223.78s33.75-100.41,87.96-78.09c54.21,22.32,79.94-20.6,112.06-44.5,32.11-23.9,78.98,27.84,104.03,57.37"/>
        <path class="cls-115" d="m7.84,223.8s34.45-101.04,88.78-78.28c54.34,22.76,80.52-20.45,112.92-44.39,32.4-23.94,79.38,28.29,104.49,58.09"/>
        <path class="cls-117" d="m6.75,223.83s35.14-101.67,89.61-78.47c54.47,23.2,81.1-20.31,113.78-44.29s79.79,28.74,104.95,58.82"/>
        <path class="cls-104" d="m5.66,223.85s35.84-102.29,90.44-78.66c54.6,23.63,81.68-20.16,114.65-44.18s80.19,29.19,105.42,59.54"/>
        <path class="cls-97" d="m4.58,223.87s36.54-102.92,91.27-78.85c54.73,24.07,82.25-20.01,115.51-44.08,33.26-24.06,80.6,29.64,105.88,60.26"/>
        <path class="cls-29" d="m3.49,223.9s37.23-103.55,92.09-79.04c54.86,24.5,82.83-19.87,116.38-43.97,33.54-24.1,81,30.09,106.34,60.99"/>
        <path class="cls-31" d="m2.4,223.92s37.93-104.17,92.92-79.23c54.99,24.94,83.41-19.72,117.24-43.86,33.83-24.14,81.4,30.54,106.8,61.71"/>
        <path class="cls-69" d="m1.31,223.94s38.63-104.8,93.75-79.42c55.12,25.38,83.99-19.57,118.11-43.76,34.12-24.18,81.81,30.99,107.26,62.43"/>
        <path class="cls-73" d="m.22,223.97s39.33-105.43,94.58-79.61c55.25,25.81,84.57-19.43,118.97-43.65s82.21,31.44,107.72,63.16"/>
        <path class="cls-108" d="m-.87,223.99s40.02-106.05,95.41-79.8c55.38,26.25,85.14-19.28,119.83-43.55,34.69-24.26,82.62,31.89,108.18,63.88"/>
        <path class="cls-72" d="m-1.95,224.01s40.72-106.68,96.23-80,85.72-19.14,120.7-43.44c34.98-24.3,83.02,32.34,108.64,64.6"/>
        <path class="cls-19" d="m-3.04,224.04s41.42-107.31,97.06-80.19c55.64,27.12,86.3-18.99,121.56-43.34,35.26-24.35,83.42,32.79,109.1,65.33"/>
        <path class="cls-79" d="m-4.13,224.06s42.11-107.93,97.89-80.38,86.88-18.84,122.43-43.23c35.55-24.39,83.83,33.24,109.56,66.05"/>
        <path class="cls-62" d="m-5.22,224.08s42.81-108.56,98.72-80.57,87.46-18.7,123.29-43.12c35.84-24.43,84.23,33.69,110.02,66.78"/>
        <path class="cls-27" d="m-6.31,224.11s43.51-109.19,99.54-80.76c56.03,28.43,88.03-18.55,124.16-43.02,36.12-24.47,84.64,34.14,110.49,67.5"/>
        <path class="cls-3" d="m-7.39,224.13s44.21-109.81,100.37-80.95c56.17,28.87,88.61-18.41,125.02-42.91,36.41-24.51,85.04,34.59,110.95,68.22"/>
        <path class="cls-60" d="m-8.48,224.16s44.9-110.44,101.2-81.14c56.3,29.3,89.19-18.26,125.88-42.81s85.45,35.04,111.41,68.95"/>
        <path class="cls-107" d="m-9.57,224.18s45.6-111.07,102.03-81.33c56.43,29.74,89.77-18.11,126.75-42.7,36.98-24.59,85.85,35.49,111.87,69.67"/>
        <path class="cls-1" d="m-10.66,224.2s46.3-111.69,102.86-81.52,90.35-17.97,127.61-42.6,86.25,35.94,112.33,70.39"/>
        <path class="cls-52" d="m-11.75,224.23s46.99-112.32,103.68-81.71c56.69,30.61,90.93-17.82,128.48-42.49,37.55-24.67,86.66,36.39,112.79,71.12"/>
        <path class="cls-50" d="m-12.83,224.25s47.69-112.95,104.51-81.9c56.82,31.05,91.5-17.68,129.34-42.38,37.84-24.71,87.06,36.84,113.25,71.84"/>
        <path class="cls-110" d="m-13.92,224.27s48.39-113.57,105.34-82.09c56.95,31.48,92.08-17.53,130.21-42.28,38.13-24.75,87.47,37.29,113.71,72.57"/>
        <path class="cls-92" d="m-15.01,224.3s49.09-114.2,106.17-82.28c57.08,31.92,92.66-17.38,131.07-42.17,38.41-24.79,87.87,37.74,114.17,73.29"/>
        <path class="cls-49" d="m-16.1,224.32s49.78-114.83,106.99-82.47c57.21,32.35,93.24-17.24,131.94-42.07,38.7-24.83,88.28,38.19,114.63,74.01"/>
        <path class="cls-35" d="m-17.19,224.34s50.48-115.45,107.82-82.66c57.34,32.79,93.82-17.09,132.8-41.96s88.68,38.64,115.09,74.74"/>
        <path class="cls-89" d="m-18.28,224.37s51.18-116.08,108.65-82.85c57.47,33.23,94.39-16.94,133.66-41.86,39.27-24.91,89.08,39.09,115.56,75.46"/>
        <path class="cls-5" d="m-19.36,224.39s51.87-116.71,109.48-83.04c57.6,33.66,94.97-16.8,134.53-41.75s89.49,39.54,116.02,76.18"/>
        <path class="cls-33" d="m-20.45,224.41s52.57-117.33,110.31-83.24c57.73,34.1,95.55-16.65,135.39-41.64,39.84-24.99,89.89,39.99,116.48,76.91"/>
        <path class="cls-12" d="m-21.54,224.44s53.27-117.96,111.13-83.43c57.86,34.53,96.13-16.51,136.26-41.54,40.13-25.03,90.3,40.44,116.94,77.63"/>
        <path class="cls-8" d="m-22.63,224.46s53.97-118.59,111.96-83.62c57.99,34.97,96.71-16.36,137.12-41.43,40.42-25.07,90.7,40.89,117.4,78.36"/>
        <path class="cls-120" d="m-23.72,224.48s54.66-119.21,112.79-83.81c58.13,35.41,97.28-16.21,137.99-41.33,40.7-25.11,91.11,41.34,117.86,79.08"/>
        <path class="cls-87" d="m-24.8,224.51s55.36-119.84,113.62-84c58.26,35.84,97.86-16.07,138.85-41.22,40.99-25.15,91.51,41.79,118.32,79.8"/>
        <path class="cls-121" d="m-25.89,224.53s56.06-120.47,114.44-84.19c58.39,36.28,98.44-15.92,139.71-41.11,41.27-25.19,91.91,42.24,118.78,80.53"/>
        <path class="cls-123" d="m-26.98,224.55s56.75-121.09,115.27-84.38c58.52,36.71,99.02-15.78,140.58-41.01,41.56-25.23,92.32,42.69,119.24,81.25"/>
        <path class="cls-42" d="m-28.07,224.58s57.45-121.72,116.1-84.57c58.65,37.15,99.6-15.63,141.44-40.9,41.85-25.27,92.72,43.14,119.7,81.97"/>
        <path class="cls-68" d="m-29.16,224.6s58.15-122.35,116.93-84.76c58.78,37.59,100.17-15.48,142.31-40.8,42.13-25.31,93.13,43.59,120.16,82.7"/>
        <path class="cls-113" d="m-30.24,224.62s58.85-122.97,117.76-84.95c58.91,38.02,100.75-15.34,143.17-40.69,42.42-25.35,93.53,44.03,120.63,83.42"/>
        <path class="cls-46" d="m-31.33,224.65s59.54-123.6,118.58-85.14c59.04,38.46,101.33-15.19,144.04-40.59,42.71-25.39,93.94,44.48,121.09,84.14"/>
        <path class="cls-25" d="m-32.42,224.67s60.24-124.23,119.41-85.33c59.17,38.89,101.91-15.05,144.9-40.48s94.34,44.93,121.55,84.87"/>
        <path class="cls-116" d="m-33.51,224.69s60.94-124.85,120.24-85.52,102.49-14.9,145.76-40.37,94.74,45.38,122.01,85.59"/>
        <path class="cls-96" d="m-34.6,224.72s61.63-125.48,121.07-85.71c59.43,39.77,103.06-14.75,146.63-40.27,43.56-25.52,95.15,45.83,122.47,86.32"/>
        <path class="cls-30" d="m-35.69,224.74s62.33-126.11,121.89-85.9c59.56,40.2,103.64-14.61,147.49-40.16,43.85-25.56,95.55,46.28,122.93,87.04"/>
        <path class="cls-74" d="m-36.77,224.77s63.03-126.73,122.72-86.09,104.22-14.46,148.36-40.06c44.14-25.6,95.96,46.73,123.39,87.76"/>
        <path class="cls-100" d="m-37.86,224.79s63.73-127.36,123.55-86.28c59.82,41.08,104.8-14.31,149.22-39.95,44.42-25.64,96.36,47.18,123.85,88.49"/>
        <path class="cls-70" d="m-38.95,224.81S25.47,96.83,85.43,138.34c59.95,41.51,105.38-14.17,150.09-39.85,44.71-25.68,96.77,47.63,124.31,89.21"/>
        <path class="cls-23" d="m-40.04,224.84S25.08,96.22,85.17,138.17c60.09,41.95,105.95-14.02,150.95-39.74,45-25.72,97.17,48.08,124.77,89.93"/>
        <path class="cls-63" d="m-41.13,224.86S24.69,95.62,84.91,138c60.22,42.38,106.53-13.88,151.81-39.63,45.28-25.76,97.57,48.53,125.23,90.66"/>
        <path class="cls-105" d="m-42.21,224.88S24.3,95.02,84.65,137.84c60.35,42.82,107.11-13.73,152.68-39.53,45.57-25.8,97.98,48.98,125.7,91.38"/>
        <path class="cls-54" d="m-43.3,224.91S23.91,94.41,84.39,137.67c60.48,43.26,107.69-13.58,153.54-39.42,45.85-25.84,98.38,49.43,126.16,92.11"/>
        <path class="cls-90" d="m-44.39,224.93S23.52,93.81,84.13,137.5c60.61,43.69,108.27-13.44,154.41-39.32,46.14-25.88,98.79,49.88,126.62,92.83"/>
        <path class="cls-93" d="m-45.48,224.95S23.13,93.21,83.87,137.33c60.74,44.13,108.84-13.29,155.27-39.21,46.43-25.92,99.19,50.33,127.08,93.55"/>
        <path class="cls-40" d="m-46.57,224.98S22.74,92.6,83.61,137.17s109.42-13.15,156.14-39.11,99.6,50.78,127.54,94.28"/>
        <path class="cls-13" d="m-47.65,225S22.35,92,83.35,137s110-13,157-39,100,51.23,128,95"/>
      </g>
    </g>
  </g>
</svg>