<?xml version="1.0" encoding="UTF-8"?>
<svg id="Layer_2" data-name="Layer 2" xmlns="http://www.w3.org/2000/svg" xmlns:xlink="http://www.w3.org/1999/xlink" viewBox="0 0 348.69 200">
  <defs>
    <style>
      .cls-1 {
        clip-path: url(#clippath);
      }

      .cls-2 {
        fill: none;
      }

      .cls-2, .cls-3, .cls-4, .cls-5, .cls-6, .cls-7, .cls-8, .cls-9, .cls-10, .cls-11, .cls-12, .cls-13, .cls-14, .cls-15, .cls-16, .cls-17, .cls-18, .cls-19, .cls-20, .cls-21, .cls-22, .cls-23, .cls-24, .cls-25, .cls-26, .cls-27, .cls-28, .cls-29, .cls-30, .cls-31, .cls-32, .cls-33, .cls-34, .cls-35, .cls-36, .cls-37, .cls-38, .cls-39, .cls-40, .cls-41, .cls-42, .cls-43, .cls-44, .cls-45, .cls-46, .cls-47, .cls-48, .cls-49, .cls-50, .cls-51, .cls-52, .cls-53, .cls-54, .cls-55, .cls-56, .cls-57, .cls-58, .cls-59, .cls-60, .cls-61, .cls-62, .cls-63, .cls-64, .cls-65, .cls-66, .cls-67, .cls-68, .cls-69, .cls-70, .cls-71, .cls-72, .cls-73, .cls-74, .cls-75, .cls-76, .cls-77, .cls-78, .cls-79, .cls-80, .cls-81, .cls-82, .cls-83, .cls-84, .cls-85, .cls-86, .cls-87, .cls-88, .cls-89, .cls-90, .cls-91, .cls-92, .cls-93, .cls-94, .cls-95, .cls-96, .cls-97, .cls-98, .cls-99, .cls-100, .cls-101, .cls-102, .cls-103, .cls-104, .cls-105, .cls-106, .cls-107, .cls-108, .cls-109, .cls-110, .cls-111, .cls-112, .cls-113, .cls-114, .cls-115, .cls-116, .cls-117, .cls-118, .cls-119, .cls-120, .cls-121, .cls-122, .cls-123, .cls-124, .cls-125, .cls-126, .cls-127, .cls-128, .cls-129, .cls-130, .cls-131, .cls-132, .cls-133, .cls-134, .cls-135, .cls-136, .cls-137, .cls-138, .cls-139, .cls-140, .cls-141, .cls-142, .cls-143, .cls-144, .cls-145, .cls-146, .cls-147, .cls-148, .cls-149, .cls-150, .cls-151, .cls-152, .cls-153, .cls-154, .cls-155, .cls-156, .cls-157, .cls-158, .cls-159, .cls-160, .cls-161, .cls-162, .cls-163, .cls-164, .cls-165, .cls-166, .cls-167, .cls-168, .cls-169, .cls-170, .cls-171, .cls-172, .cls-173, .cls-174, .cls-175, .cls-176, .cls-177, .cls-178, .cls-179, .cls-180, .cls-181, .cls-182 {
        stroke-width: 0px;
      }

      .cls-3 {
        fill: #625140;
      }

      .cls-4 {
        fill: #615140;
      }

      .cls-5 {
        fill: #5d4e3e;
      }

      .cls-6 {
        fill: #60503f;
      }

      .cls-7 {
        fill: #605140;
      }

      .cls-8 {
        fill: #5f4f3f;
      }

      .cls-9 {
        fill: #5f503f;
      }

      .cls-10 {
        fill: #77614a;
      }

      .cls-11 {
        fill: #625240;
      }

      .cls-12 {
        fill: #756049;
      }

      .cls-13 {
        fill: #766049;
      }

      .cls-14 {
        fill: #766149;
      }

      .cls-15 {
        fill: #7a644b;
      }

      .cls-16 {
        fill: #5e4f3f;
      }

      .cls-17 {
        fill: #5e4f3e;
      }

      .cls-18 {
        fill: #79634b;
      }

      .cls-19 {
        fill: #79634a;
      }

      .cls-20 {
        fill: #79624a;
      }

      .cls-21 {
        fill: #7a634b;
      }

      .cls-22 {
        fill: #78624a;
      }

      .cls-23 {
        fill: #836b4f;
      }

      .cls-24 {
        fill: #836a4f;
      }

      .cls-25 {
        fill: #7c654c;
      }

      .cls-26 {
        fill: #7b654c;
      }

      .cls-27 {
        fill: #7b644b;
      }

      .cls-28 {
        fill: #635240;
      }

      .cls-29 {
        fill: #635241;
      }

      .cls-30 {
        fill: #635341;
      }

      .cls-31 {
        fill: #645341;
      }

      .cls-32 {
        fill: #6d5a45;
      }

      .cls-33 {
        fill: #886e51;
      }

      .cls-34 {
        fill: #705c47;
      }

      .cls-35 {
        fill: #705c46;
      }

      .cls-36 {
        fill: #9b7c5a;
      }

      .cls-37 {
        fill: #9a7c59;
      }

      .cls-38 {
        fill: #9a7b59;
      }

      .cls-39 {
        fill: #8a6f52;
      }

      .cls-40 {
        fill: #8a7052;
      }

      .cls-41 {
        fill: #896e52;
      }

      .cls-42 {
        fill: #876d51;
      }

      .cls-43 {
        fill: #967858;
      }

      .cls-44 {
        fill: #967857;
      }

      .cls-45 {
        fill: #896f52;
      }

      .cls-46 {
        fill: #957757;
      }

      .cls-47 {
        fill: #957857;
      }

      .cls-48 {
        fill: #6f5b46;
      }

      .cls-49 {
        fill: #725d47;
      }

      .cls-50 {
        fill: #725e47;
      }

      .cls-51 {
        fill: #725e48;
      }

      .cls-52 {
        fill: #6f5c46;
      }

      .cls-53 {
        fill: #715d47;
      }

      .cls-54 {
        fill: #a2825d;
      }

      .cls-55 {
        fill: #a2815d;
      }

      .cls-56 {
        fill: #826a4f;
      }

      .cls-57 {
        fill: #6e5a45;
      }

      .cls-58 {
        fill: #6e5b46;
      }

      .cls-59 {
        fill: #947757;
      }

      .cls-60 {
        fill: #a3825d;
      }

      .cls-61 {
        fill: #a3825e;
      }

      .cls-62 {
        fill: #846b4f;
      }

      .cls-63 {
        fill: #846b50;
      }

      .cls-64 {
        fill: #c49b6c;
      }

      .cls-65 {
        fill: #c49a6c;
      }

      .cls-66 {
        fill: #c59b6d;
      }

      .cls-67 {
        fill: #c59b6c;
      }

      .cls-68 {
        fill: #ac8961;
      }

      .cls-69 {
        fill: #c69c6d;
      }

      .cls-70 {
        fill: #ad8962;
      }

      .cls-71 {
        fill: #ad8a62;
      }

      .cls-72 {
        fill: #c1996b;
      }

      .cls-73 {
        fill: #bc9569;
      }

      .cls-74 {
        fill: #bc9468;
      }

      .cls-75 {
        fill: #aa8761;
      }

      .cls-76 {
        fill: #aa8760;
      }

      .cls-77 {
        fill: #aa8861;
      }

      .cls-78 {
        fill: #bf976a;
      }

      .cls-79 {
        fill: #a4835e;
      }

      .cls-80 {
        fill: #ab8861;
      }

      .cls-81 {
        fill: #c1986b;
      }

      .cls-82 {
        fill: #be9669;
      }

      .cls-83 {
        fill: #be966a;
      }

      .cls-84 {
        fill: #b28d64;
      }

      .cls-85 {
        fill: #c0986a;
      }

      .cls-86 {
        fill: #c0986b;
      }

      .cls-87 {
        fill: #b08c63;
      }

      .cls-88 {
        fill: #af8b63;
      }

      .cls-89 {
        fill: #b18d64;
      }

      .cls-90 {
        fill: #b08b63;
      }

      .cls-91 {
        fill: #b18c63;
      }

      .cls-92 {
        fill: #b18c64;
      }

      .cls-93 {
        fill: #bd9569;
      }

      .cls-94 {
        fill: #a5835e;
      }

      .cls-95 {
        fill: #a5845e;
      }

      .cls-96 {
        fill: #bd9669;
      }

      .cls-97 {
        fill: #ae8a62;
      }

      .cls-98 {
        fill: #a6845e;
      }

      .cls-99 {
        fill: #a6845f;
      }

      .cls-100 {
        fill: #a7855f;
      }

      .cls-101 {
        fill: #a98760;
      }

      .cls-102 {
        fill: #a98660;
      }

      .cls-103 {
        fill: #c0976a;
      }

      .cls-104 {
        fill: #a8855f;
      }

      .cls-105 {
        fill: #a88660;
      }

      .cls-106 {
        fill: #b38e64;
      }

      .cls-107 {
        fill: #b38e65;
      }

      .cls-108 {
        fill: #937656;
      }

      .cls-109 {
        fill: #b89167;
      }

      .cls-110 {
        fill: #b89267;
      }

      .cls-111 {
        fill: #866d50;
      }

      .cls-112 {
        fill: #866c50;
      }

      .cls-113 {
        fill: #b99367;
      }

      .cls-114 {
        fill: #b99267;
      }

      .cls-115 {
        fill: #b79166;
      }

      .cls-116 {
        fill: #b69066;
      }

      .cls-117 {
        fill: #9d7e5b;
      }

      .cls-118 {
        fill: #9d7d5b;
      }

      .cls-119 {
        fill: #8c7153;
      }

      .cls-120 {
        fill: #9e7e5b;
      }

      .cls-121 {
        fill: #8d7254;
      }

      .cls-122 {
        fill: #8d7253;
      }

      .cls-123 {
        fill: #9c7d5a;
      }

      .cls-124 {
        fill: #a1815d;
      }

      .cls-125 {
        fill: #a1815c;
      }

      .cls-126 {
        fill: #917555;
      }

      .cls-127 {
        fill: #c39a6c;
      }

      .cls-128 {
        fill: #c3996b;
      }

      .cls-129 {
        fill: #907455;
      }

      .cls-130 {
        fill: #917455;
      }

      .cls-131 {
        fill: #b48f65;
      }

      .cls-132 {
        fill: #b58f65;
      }

      .cls-133 {
        fill: #c2996b;
      }

      .cls-134 {
        fill: #b48e65;
      }

      .cls-135 {
        fill: #b59066;
      }

      .cls-136 {
        fill: #735e48;
      }

      .cls-137 {
        fill: #665542;
      }

      .cls-138 {
        fill: #735f48;
      }

      .cls-139 {
        fill: #665442;
      }

      .cls-140 {
        fill: #bb9468;
      }

      .cls-141 {
        fill: #8e7254;
      }

      .cls-142 {
        fill: #8e7354;
      }

      .cls-143 {
        fill: #8f7354;
      }

      .cls-144 {
        fill: #ba9368;
      }

      .cls-145 {
        fill: #7e674d;
      }

      .cls-146 {
        fill: #7e664d;
      }

      .cls-147 {
        fill: #987a58;
      }

      .cls-148 {
        fill: #987a59;
      }

      .cls-149 {
        fill: #6b5944;
      }

      .cls-150 {
        fill: #6b5844;
      }

      .cls-151 {
        fill: #977958;
      }

      .cls-152 {
        fill: #7d664c;
      }

      .cls-153 {
        fill: #6c5945;
      }

      .cls-154 {
        fill: #7d664d;
      }

      .cls-155 {
        fill: #80684e;
      }

      .cls-156 {
        fill: #80684d;
      }

      .cls-157 {
        fill: #927556;
      }

      .cls-158 {
        fill: #8b7053;
      }

      .cls-159 {
        fill: #8b7052;
      }

      .cls-160 {
        fill: #a1805c;
      }

      .cls-161 {
        fill: #a07f5c;
      }

      .cls-162 {
        fill: #927656;
      }

      .cls-163 {
        fill: #a0805c;
      }

      .cls-164 {
        fill: #9f7f5b;
      }

      .cls-165 {
        fill: #9f7f5c;
      }

      .cls-166 {
        fill: #856c50;
      }

      .cls-167 {
        fill: #745f48;
      }

      .cls-168 {
        fill: #81684e;
      }

      .cls-169 {
        fill: #81694e;
      }

      .cls-170 {
        fill: #82694f;
      }

      .cls-171 {
        fill: #82694e;
      }

      .cls-172 {
        fill: #7f674d;
      }

      .cls-173 {
        fill: #685643;
      }

      .cls-174 {
        fill: #655441;
      }

      .cls-175 {
        fill: #655442;
      }

      .cls-176 {
        fill: #997a59;
      }

      .cls-177 {
        fill: #997b59;
      }

      .cls-178 {
        fill: #675643;
      }

      .cls-179 {
        fill: #675542;
      }

      .cls-180 {
        fill: #6a5844;
      }

      .cls-181 {
        fill: #6a5744;
      }

      .cls-182 {
        fill: #695743;
      }
    </style>
    <clipPath id="clippath">
      <rect class="cls-2" width="348.69" height="200"/>
    </clipPath>
  </defs>
  <g id="Layer_1-2" data-name="Layer 1">
    <g class="cls-1">
      <g>
        <polygon class="cls-5" points="20.6 249.78 -2.08 221.86 -17.18 235.34 -51.07 195.79 -9.7 187.22 4.91 210.85 27.62 215 20.6 249.78"/>
        <polygon class="cls-5" points="20.82 249.93 -1.97 221.87 -17.15 235.42 -51.2 195.68 -9.63 187.06 5.05 210.81 27.87 214.99 20.82 249.93"/>
        <polygon class="cls-17" points="21.16 250.08 -1.74 221.88 -16.99 235.5 -51.21 195.56 -9.44 186.91 5.31 210.77 28.25 214.96 21.16 250.08"/>
        <polygon class="cls-17" points="21.61 250.22 -1.4 221.89 -16.72 235.57 -51.1 195.44 -9.13 186.75 5.69 210.72 28.73 214.94 21.61 250.22"/>
        <polygon class="cls-16" points="22.18 250.36 -.94 221.89 -16.34 235.64 -50.88 195.32 -8.71 186.58 6.19 210.67 29.34 214.91 22.18 250.36"/>
        <polygon class="cls-8" points="22.86 250.5 -.37 221.89 -15.84 235.71 -50.55 195.19 -8.17 186.41 6.79 210.62 30.05 214.87 22.86 250.5"/>
        <polygon class="cls-9" points="23.65 250.63 .31 221.89 -15.23 235.77 -50.11 195.06 -7.53 186.24 7.5 210.56 30.87 214.84 23.65 250.63"/>
        <polygon class="cls-9" points="24.54 250.76 1.09 221.88 -14.52 235.82 -49.57 194.93 -6.79 186.06 8.32 210.5 31.8 214.8 24.54 250.76"/>
        <polygon class="cls-6" points="25.54 250.88 1.98 221.87 -13.71 235.88 -48.92 194.79 -5.94 185.88 9.24 210.43 32.83 214.75 25.54 250.88"/>
        <polygon class="cls-6" points="26.63 251 2.96 221.85 -12.8 235.93 -48.17 194.64 -4.99 185.7 10.25 210.36 33.96 214.7 26.63 251"/>
        <polygon class="cls-7" points="27.82 251.11 4.04 221.83 -11.8 235.97 -47.33 194.5 -3.95 185.51 11.37 210.29 35.18 214.65 27.82 251.11"/>
        <polygon class="cls-4" points="29.1 251.22 5.21 221.81 -10.7 236.01 -46.4 194.35 -2.82 185.32 12.57 210.21 36.49 214.59 29.1 251.22"/>
        <polygon class="cls-4" points="30.47 251.33 6.47 221.78 -9.52 236.05 -45.38 194.19 -1.6 185.12 13.87 210.13 37.9 214.53 30.47 251.33"/>
        <polygon class="cls-3" points="31.92 251.43 7.82 221.74 -8.24 236.08 -44.27 194.03 -.29 184.92 15.25 210.04 39.39 214.46 31.92 251.43"/>
        <polygon class="cls-11" points="33.46 251.53 9.24 221.7 -6.89 236.11 -43.08 193.86 1.1 184.71 16.71 209.95 40.96 214.39 33.46 251.53"/>
        <polygon class="cls-11" points="35.08 251.62 10.75 221.66 -5.45 236.13 -41.81 193.69 2.58 184.5 18.25 209.85 42.62 214.31 35.08 251.62"/>
        <polygon class="cls-28" points="36.78 251.71 12.34 221.61 -3.94 236.14 -40.46 193.52 4.13 184.28 19.87 209.75 44.35 214.23 36.78 251.71"/>
        <polygon class="cls-29" points="38.55 251.79 14 221.56 -2.35 236.16 -39.04 193.34 5.75 184.06 21.57 209.64 46.15 214.14 38.55 251.79"/>
        <polygon class="cls-30" points="40.39 251.86 15.73 221.5 -.69 236.16 -37.54 193.15 7.44 183.83 23.33 209.53 48.02 214.05 40.39 251.86"/>
        <polygon class="cls-31" points="42.3 251.94 17.53 221.44 1.03 236.16 -35.98 192.96 9.2 183.6 25.16 209.41 49.97 213.95 42.3 251.94"/>
        <polygon class="cls-31" points="44.27 252 19.39 221.37 2.82 236.16 -34.36 192.77 11.03 183.36 27.06 209.29 51.97 213.85 44.27 252"/>
        <polygon class="cls-31" points="46.31 252.06 21.32 221.29 4.67 236.15 -32.67 192.57 12.92 183.12 29.02 209.16 54.04 213.74 46.31 252.06"/>
        <polygon class="cls-174" points="48.4 252.12 23.3 221.21 6.58 236.14 -30.93 192.36 14.86 182.87 31.03 209.03 56.17 213.63 48.4 252.12"/>
        <polygon class="cls-175" points="50.55 252.17 25.34 221.13 8.55 236.12 -29.13 192.15 16.86 182.62 33.11 208.89 58.35 213.51 50.55 252.17"/>
        <polygon class="cls-175" points="52.75 252.21 27.43 221.04 10.56 236.09 -27.28 191.93 18.92 182.36 35.23 208.75 60.59 213.38 52.75 252.21"/>
        <polygon class="cls-139" points="55 252.25 29.57 220.94 12.63 236.06 -25.37 191.71 21.02 182.1 37.4 208.6 62.87 213.25 55 252.25"/>
        <polygon class="cls-137" points="57.29 252.29 31.75 220.84 14.74 236.02 -23.43 191.48 23.17 181.82 39.62 208.44 65.2 213.12 57.29 252.29"/>
        <polygon class="cls-137" points="59.63 252.31 33.98 220.73 16.9 235.98 -21.44 191.24 25.36 181.55 41.88 208.28 67.57 212.98 59.63 252.31"/>
        <polygon class="cls-179" points="62.01 252.33 36.25 220.61 19.09 235.93 -19.41 191 27.59 181.27 44.19 208.11 69.98 212.83 62.01 252.33"/>
        <polygon class="cls-178" points="64.42 252.35 38.55 220.49 21.32 235.88 -17.34 190.75 29.86 180.98 46.53 207.94 72.43 212.67 64.42 252.35"/>
        <polygon class="cls-178" points="66.87 252.36 40.89 220.37 23.59 235.81 -15.24 190.5 32.16 180.68 48.9 207.76 74.91 212.51 66.87 252.36"/>
        <polygon class="cls-173" points="69.35 252.36 43.26 220.23 25.88 235.75 -13.11 190.24 34.49 180.38 51.3 207.57 77.43 212.35 69.35 252.36"/>
        <polygon class="cls-173" points="71.86 252.35 45.66 220.09 28.21 235.67 -10.95 189.97 36.85 180.07 53.73 207.38 79.97 212.18 71.86 252.35"/>
        <polygon class="cls-182" points="74.39 252.34 48.08 219.95 30.55 235.59 -8.77 189.7 39.23 179.76 56.19 207.18 82.53 212 74.39 252.34"/>
        <polygon class="cls-182" points="76.94 252.33 50.52 219.79 32.92 235.5 -6.56 189.42 41.64 179.44 58.66 206.97 85.12 211.81 76.94 252.33"/>
        <polygon class="cls-182" points="79.51 252.3 52.98 219.63 35.31 235.41 -4.34 189.14 44.06 179.11 61.16 206.76 87.72 211.62 79.51 252.3"/>
        <polygon class="cls-181" points="82.1 252.27 55.45 219.47 37.71 235.31 -2.1 188.84 46.5 178.77 63.67 206.54 90.34 211.42 82.1 252.27"/>
        <polygon class="cls-180" points="84.69 252.23 57.94 219.29 40.13 235.2 .15 188.54 48.95 178.43 66.19 206.31 92.98 211.21 84.69 252.23"/>
        <polygon class="cls-180" points="87.3 252.19 60.44 219.11 42.55 235.09 2.41 188.24 51.41 178.09 68.72 206.08 95.62 211 87.3 252.19"/>
        <polygon class="cls-150" points="89.91 252.14 62.94 218.93 44.98 234.97 4.67 187.92 53.88 177.73 71.25 205.84 98.26 210.78 89.91 252.14"/>
        <polygon class="cls-150" points="92.53 252.08 65.45 218.73 47.41 234.84 6.94 187.6 56.34 177.37 73.79 205.59 100.91 210.55 92.53 252.08"/>
        <polygon class="cls-149" points="95.14 252.01 67.95 218.53 49.84 234.7 9.21 187.27 58.81 177 76.33 205.33 103.56 210.32 95.14 252.01"/>
        <polygon class="cls-153" points="97.75 251.94 70.45 218.32 52.27 234.56 11.47 186.94 61.28 176.62 78.87 205.07 106.21 210.07 97.75 251.94"/>
        <polygon class="cls-153" points="100.36 251.86 72.95 218.11 54.69 234.41 13.73 186.6 63.73 176.24 81.39 204.8 108.84 209.82 100.36 251.86"/>
        <polygon class="cls-153" points="102.95 251.77 75.43 217.88 57.1 234.25 15.97 186.25 66.18 175.84 83.91 204.52 111.47 209.57 102.95 251.77"/>
        <polygon class="cls-32" points="105.54 251.68 77.9 217.65 59.5 234.08 18.21 185.89 68.62 175.44 86.42 204.24 114.09 209.3 105.54 251.68"/>
        <polygon class="cls-32" points="108.1 251.57 80.36 217.41 61.88 233.91 20.43 185.52 71.04 175.04 88.91 203.95 116.69 209.03 108.1 251.57"/>
        <polygon class="cls-32" points="110.65 251.46 82.8 217.16 64.25 233.73 22.63 185.15 73.44 174.62 91.38 203.65 119.27 208.75 110.65 251.46"/>
        <polygon class="cls-57" points="113.18 251.34 85.21 216.91 66.59 233.54 24.8 184.77 75.82 174.2 93.83 203.34 121.83 208.46 113.18 251.34"/>
        <polygon class="cls-58" points="115.68 251.21 87.6 216.65 68.91 233.34 26.96 184.38 78.17 173.77 96.26 203.02 124.37 208.16 115.68 251.21"/>
        <polygon class="cls-58" points="118.15 251.08 89.97 216.37 71.2 233.13 29.08 183.98 80.49 173.33 98.65 202.7 126.87 207.86 118.15 251.08"/>
        <polygon class="cls-48" points="120.59 250.93 92.3 216.09 73.45 232.92 31.17 183.57 82.79 172.88 101.02 202.36 129.35 207.55 120.59 250.93"/>
        <polygon class="cls-48" points="123 250.78 94.59 215.81 75.68 232.7 33.23 183.16 85.05 172.42 103.35 202.02 131.79 207.22 123 250.78"/>
        <polygon class="cls-52" points="125.37 250.62 96.85 215.51 77.86 232.47 35.25 182.74 87.27 171.96 105.64 201.67 134.19 206.9 125.37 250.62"/>
        <polygon class="cls-35" points="127.69 250.45 99.07 215.21 80.01 232.23 37.24 182.3 89.45 171.49 107.89 201.31 136.56 206.56 127.69 250.45"/>
        <polygon class="cls-34" points="129.98 250.27 101.25 214.89 82.11 231.98 39.17 181.86 91.59 171.01 110.1 200.95 138.88 206.21 129.98 250.27"/>
        <polygon class="cls-53" points="132.22 250.09 103.38 214.57 84.17 231.72 41.06 181.42 93.68 170.52 112.26 200.57 141.15 205.86 132.22 250.09"/>
        <polygon class="cls-53" points="134.41 249.89 105.45 214.24 86.17 231.46 42.9 180.96 95.72 170.02 114.38 200.19 143.37 205.49 134.41 249.89"/>
        <polygon class="cls-53" points="136.54 249.69 107.48 213.9 88.12 231.18 44.69 180.49 97.71 169.51 116.44 199.79 145.54 205.12 136.54 249.69"/>
        <polygon class="cls-49" points="138.62 249.47 109.45 213.55 90.02 230.9 46.42 180.02 99.65 168.99 118.44 199.39 147.65 204.74 138.62 249.47"/>
        <polygon class="cls-50" points="140.64 249.25 111.36 213.19 91.86 230.61 48.1 179.53 101.52 168.47 120.39 198.98 149.71 204.35 140.64 249.25"/>
        <polygon class="cls-51" points="142.6 249.02 113.21 212.83 93.63 230.3 49.71 179.04 103.33 167.93 122.27 198.56 151.7 203.95 142.6 249.02"/>
        <polygon class="cls-136" points="144.5 248.78 114.99 212.45 95.34 229.99 51.25 178.54 105.08 167.39 124.09 198.13 153.63 203.54 144.5 248.78"/>
        <polygon class="cls-136" points="146.32 248.53 116.71 212.06 96.98 229.67 52.73 178.02 106.76 166.83 125.83 197.69 155.49 203.12 146.32 248.53"/>
        <polygon class="cls-138" points="148.08 248.27 118.35 211.67 98.55 229.34 54.14 177.5 108.36 166.27 127.51 197.24 157.28 202.69 148.08 248.27"/>
        <polygon class="cls-167" points="149.75 248 119.92 211.27 100.05 229.01 55.47 176.97 109.89 165.7 129.12 196.79 158.99 202.25 149.75 248"/>
        <polygon class="cls-167" points="151.36 247.72 121.41 210.85 101.47 228.66 56.72 176.43 111.35 165.11 130.64 196.32 160.63 201.8 151.36 247.72"/>
        <polygon class="cls-167" points="152.88 247.43 122.82 210.43 102.81 228.3 57.9 175.88 112.72 164.52 132.09 195.84 162.18 201.35 152.88 247.43"/>
        <polygon class="cls-12" points="154.31 247.14 124.15 209.99 104.06 227.93 58.98 175.32 114.01 163.92 133.45 195.35 163.65 200.88 154.31 247.14"/>
        <polygon class="cls-12" points="155.66 246.83 125.39 209.55 105.23 227.55 59.99 174.75 115.22 163.31 134.72 194.86 165.04 200.4 155.66 246.83"/>
        <polygon class="cls-12" points="156.92 246.51 126.54 209.1 106.3 227.16 60.9 174.17 116.33 162.69 135.9 194.35 166.33 199.91 156.92 246.51"/>
        <polygon class="cls-13" points="158.09 246.18 127.6 208.63 107.29 226.76 61.72 173.58 117.35 162.05 137 193.83 167.53 199.42 158.09 246.18"/>
        <polygon class="cls-14" points="159.16 245.84 128.56 208.16 108.18 226.36 62.44 172.98 118.27 161.41 137.99 193.3 168.64 198.91 159.16 245.84"/>
        <polygon class="cls-14" points="160.13 245.49 129.42 207.67 108.96 225.94 63.07 172.37 119.1 160.76 138.89 192.77 169.64 198.39 160.13 245.49"/>
        <polygon class="cls-10" points="161 245.13 130.18 207.18 109.65 225.51 63.59 171.75 119.82 160.1 139.68 192.22 170.55 197.86 161 245.13"/>
        <polygon class="cls-10" points="161.77 244.76 130.83 206.67 110.23 225.07 64 171.11 120.44 159.42 140.37 191.66 171.34 197.33 161.77 244.76"/>
        <polygon class="cls-22" points="162.42 244.38 131.38 206.16 110.7 224.62 64.31 170.47 120.95 158.74 140.95 191.09 172.03 196.78 162.42 244.38"/>
        <polygon class="cls-22" points="162.97 243.99 131.81 205.63 111.06 224.16 64.51 169.82 121.34 158.04 141.41 190.51 172.61 196.22 162.97 243.99"/>
        <polygon class="cls-22" points="163.4 243.59 132.13 205.09 111.31 223.68 64.59 169.15 121.62 157.34 141.77 189.92 173.08 195.65 163.4 243.59"/>
        <polygon class="cls-20" points="163.71 243.18 132.33 204.54 111.44 223.2 64.55 168.48 121.79 156.62 142 189.32 173.42 195.06 163.71 243.18"/>
        <polygon class="cls-19" points="163.9 242.75 132.41 203.99 111.44 222.71 64.39 167.79 121.83 155.89 142.12 188.7 173.65 194.47 163.9 242.75"/>
        <polygon class="cls-18" points="163.97 242.32 132.37 203.41 111.33 222.2 64.11 167.1 121.75 155.16 142.11 188.08 173.75 193.87 163.97 242.32"/>
        <polygon class="cls-21" points="163.9 241.87 132.2 202.83 111.08 221.69 63.7 166.39 121.54 154.41 141.97 187.45 173.72 193.25 163.9 241.87"/>
        <polygon class="cls-15" points="163.71 241.42 131.9 202.24 110.71 221.16 63.17 165.67 121.21 153.64 141.7 186.8 173.56 192.63 163.71 241.42"/>
        <polygon class="cls-15" points="163.26 240.71 131.33 201.4 110.07 220.38 62.36 164.7 120.6 152.63 141.17 185.9 173.14 191.75 163.26 240.71"/>
        <polygon class="cls-27" points="162.83 239.83 130.8 200.38 109.46 219.43 61.59 163.56 120.03 151.45 140.67 184.84 172.75 190.7 162.83 239.83"/>
        <polygon class="cls-27" points="162.6 238.97 130.45 199.39 109.04 218.51 61.01 162.44 119.65 150.29 140.36 183.79 172.55 189.68 162.6 238.97"/>
        <polygon class="cls-26" points="162.55 238.14 130.3 198.42 108.81 217.6 60.61 161.34 119.46 149.15 140.24 182.76 172.54 188.67 162.55 238.14"/>
        <polygon class="cls-25" points="162.68 237.31 130.32 197.46 108.76 216.71 60.39 160.26 119.44 148.02 140.29 181.75 172.7 187.68 162.68 237.31"/>
        <polygon class="cls-25" points="162.98 236.51 130.51 196.52 108.88 215.83 60.35 159.19 119.59 146.91 140.51 180.76 173.03 186.71 162.98 236.51"/>
        <polygon class="cls-25" points="163.44 235.72 130.86 195.59 109.15 214.97 60.46 158.13 119.91 145.82 140.9 179.78 173.53 185.75 163.44 235.72"/>
        <polygon class="cls-152" points="164.06 234.94 131.36 194.68 109.59 214.12 60.73 157.1 120.37 144.74 141.44 178.81 174.18 184.8 164.06 234.94"/>
        <polygon class="cls-152" points="164.82 234.17 132.02 193.78 110.17 213.29 61.14 156.07 120.99 143.67 142.13 177.86 174.98 183.87 164.82 234.17"/>
        <polygon class="cls-154" points="165.72 233.42 132.81 192.89 110.88 212.46 61.7 155.05 121.74 142.61 142.95 176.91 175.91 182.94 165.72 233.42"/>
        <polygon class="cls-146" points="166.76 232.68 133.73 192.01 111.73 211.65 62.38 154.05 122.63 141.56 143.91 175.98 176.98 182.03 166.76 232.68"/>
        <polygon class="cls-145" points="167.91 231.94 134.78 191.14 112.71 210.84 63.19 153.05 123.64 140.53 144.99 175.06 178.17 181.13 167.91 231.94"/>
        <polygon class="cls-145" points="169.19 231.22 135.94 190.28 113.8 210.05 64.11 152.06 124.77 139.5 146.19 174.14 179.48 180.23 169.19 231.22"/>
        <polygon class="cls-172" points="170.57 230.5 137.21 189.42 114.99 209.26 65.15 151.08 126 138.47 147.49 173.23 180.89 179.34 170.57 230.5"/>
        <polygon class="cls-172" points="172.05 229.78 138.58 188.57 116.29 208.47 66.28 150.1 127.33 137.45 148.9 172.33 182.41 178.46 172.05 229.78"/>
        <polygon class="cls-156" points="173.62 229.07 140.05 187.73 117.68 207.69 67.51 149.13 128.76 136.44 150.39 171.43 184.02 177.58 173.62 229.07"/>
        <polygon class="cls-155" points="175.28 228.36 141.6 186.88 119.16 206.92 68.82 148.16 130.27 135.43 151.98 170.54 185.71 176.71 175.28 228.36"/>
        <polygon class="cls-155" points="177.02 227.66 143.22 186.04 120.71 206.14 70.21 147.2 131.86 134.42 153.64 169.64 187.48 175.83 177.02 227.66"/>
        <polygon class="cls-168" points="178.83 226.96 144.92 185.21 122.34 205.37 71.67 146.23 133.52 133.42 155.37 168.75 189.32 174.96 178.83 226.96"/>
        <polygon class="cls-169" points="180.69 226.25 146.68 184.37 124.02 204.6 73.19 145.27 135.24 132.41 157.16 167.86 191.23 174.09 180.69 226.25"/>
        <polygon class="cls-169" points="182.62 225.55 148.49 183.53 125.76 203.82 74.76 144.3 137.02 131.4 159.01 166.96 193.18 173.22 182.62 225.55"/>
        <polygon class="cls-171" points="184.59 224.84 150.35 182.69 127.55 203.04 76.39 143.33 138.84 130.39 160.9 166.07 195.19 172.34 184.59 224.84"/>
        <polygon class="cls-170" points="186.6 224.13 152.25 181.84 129.37 202.26 78.05 142.36 140.71 129.38 162.83 165.17 197.23 171.46 186.6 224.13"/>
        <polygon class="cls-56" points="188.64 223.42 154.18 180.99 131.23 201.48 79.74 141.38 142.6 128.36 164.8 164.27 199.3 170.58 188.64 223.42"/>
        <polygon class="cls-24" points="190.7 222.7 156.13 180.13 133.11 200.69 81.45 140.4 144.52 127.34 166.79 163.36 201.4 169.69 190.7 222.7"/>
        <polygon class="cls-24" points="192.78 221.97 158.1 179.27 135.01 199.89 83.19 139.41 146.45 126.31 168.79 162.44 203.52 168.79 192.78 221.97"/>
        <polygon class="cls-23" points="194.87 221.24 160.08 178.4 136.91 199.09 84.93 138.41 148.39 125.27 170.8 161.52 205.64 167.89 194.87 221.24"/>
        <polygon class="cls-62" points="196.96 220.49 162.06 177.52 138.82 198.27 86.67 137.41 150.33 124.22 172.81 160.59 207.76 166.98 196.96 220.49"/>
        <polygon class="cls-62" points="199.04 219.74 164.03 176.63 140.71 197.45 88.4 136.39 152.26 123.16 174.82 159.64 209.87 166.05 199.04 219.74"/>
        <polygon class="cls-63" points="201.1 218.97 165.99 175.73 142.6 196.61 90.12 135.36 154.18 122.09 176.81 158.69 211.98 165.12 201.1 218.97"/>
        <polygon class="cls-166" points="203.15 218.2 167.92 174.82 144.46 195.77 91.81 134.32 156.08 121.01 178.78 157.72 214.05 164.17 203.15 218.2"/>
        <polygon class="cls-166" points="205.16 217.4 169.82 173.89 146.29 194.9 93.48 133.27 157.95 119.92 180.71 156.74 216.1 163.21 205.16 217.4"/>
        <polygon class="cls-166" points="207.14 216.6 171.69 172.95 148.08 194.03 95.11 132.2 159.77 118.81 182.61 155.74 218.11 162.24 207.14 216.6"/>
        <polygon class="cls-112" points="209.07 215.78 173.51 171.99 149.83 193.14 96.69 131.12 161.56 117.68 184.47 154.73 220.07 161.25 209.07 215.78"/>
        <polygon class="cls-111" points="210.94 214.94 175.27 171.02 151.52 192.23 98.22 130.02 163.29 116.54 186.27 153.71 221.98 160.24 210.94 214.94"/>
        <polygon class="cls-42" points="212.76 214.08 176.98 170.02 153.15 191.3 99.68 128.9 164.95 115.38 188.01 152.66 223.83 159.21 212.76 214.08"/>
        <polygon class="cls-42" points="214.5 213.2 178.62 169.01 154.71 190.35 101.08 127.76 166.55 114.2 189.68 151.59 225.61 158.17 214.5 213.2"/>
        <polygon class="cls-42" points="216.17 212.31 180.18 167.98 156.2 189.39 102.41 126.6 168.08 112.99 191.27 150.51 227.32 157.1 216.17 212.31"/>
        <polygon class="cls-33" points="217.76 211.39 181.65 166.93 157.6 188.4 103.64 125.42 169.52 111.77 192.78 149.4 228.94 156.01 217.76 211.39"/>
        <polygon class="cls-33" points="219.25 210.45 183.04 165.85 158.91 187.39 104.79 124.22 170.86 110.53 194.2 148.27 230.47 154.9 219.25 210.45"/>
        <polygon class="cls-33" points="220.65 209.48 184.32 164.75 160.12 186.35 105.84 122.99 172.11 109.26 195.52 147.12 231.89 153.77 220.65 209.48"/>
        <polygon class="cls-41" points="221.94 208.49 185.5 163.62 161.23 185.29 106.78 121.74 173.25 107.97 196.73 145.94 233.22 152.61 221.94 208.49"/>
        <polygon class="cls-45" points="223.11 207.48 186.56 162.47 162.22 184.2 107.6 120.46 174.28 106.65 197.82 144.73 234.42 151.43 223.11 207.48"/>
        <polygon class="cls-45" points="224.16 206.43 187.5 161.29 163.08 183.09 108.3 119.15 175.18 105.3 198.8 143.5 235.51 150.22 224.16 206.43"/>
        <polygon class="cls-39" points="225.08 205.36 188.31 160.09 163.82 181.95 108.87 117.82 175.95 103.92 199.64 142.24 236.46 148.98 225.08 205.36"/>
        <polygon class="cls-39" points="225.86 204.26 188.98 158.85 164.42 180.78 109.31 116.46 176.58 102.52 200.34 140.95 237.27 147.71 225.86 204.26"/>
        <polygon class="cls-40" points="226.49 203.13 189.5 157.58 164.87 179.58 109.59 115.06 177.07 101.08 200.9 139.63 237.94 146.41 226.49 203.13"/>
        <polygon class="cls-159" points="226.98 201.97 189.88 156.28 165.17 178.34 109.73 113.64 177.41 99.62 201.31 138.28 238.46 145.07 226.98 201.97"/>
        <polygon class="cls-158" points="227.3 200.77 190.09 154.95 165.31 177.08 109.7 112.18 177.58 98.12 201.56 136.89 238.82 143.71 227.3 200.77"/>
        <polygon class="cls-158" points="227.46 199.45 190.14 153.5 165.29 175.69 109.52 110.6 177.6 96.49 201.65 135.38 239.02 142.22 227.46 199.45"/>
        <polygon class="cls-119" points="227.71 197.97 190.28 151.88 165.35 174.14 109.41 108.86 177.7 94.71 201.81 133.71 239.29 140.57 227.71 197.97"/>
        <polygon class="cls-119" points="228.1 196.57 190.56 150.35 165.56 172.67 109.46 107.19 177.95 93.01 202.13 132.13 239.72 139 228.1 196.57"/>
        <polygon class="cls-119" points="228.65 195.25 191 148.89 165.92 171.28 109.66 105.61 178.34 91.39 202.6 130.62 240.3 137.52 228.65 195.25"/>
        <polygon class="cls-122" points="229.33 194.01 191.57 147.52 166.42 169.97 110 104.11 178.88 89.84 203.21 129.19 241.02 136.11 229.33 194.01"/>
        <polygon class="cls-121" points="230.15 192.85 192.28 146.22 167.06 168.74 110.47 102.69 179.55 88.38 203.95 127.84 241.88 134.78 230.15 192.85"/>
        <polygon class="cls-121" points="231.1 191.77 193.12 145 167.82 167.58 111.07 101.34 180.36 86.99 204.83 126.57 242.86 133.52 231.1 191.77"/>
        <polygon class="cls-141" points="232.17 190.76 194.08 143.85 168.71 166.5 111.79 100.07 181.28 85.68 205.82 125.37 243.96 132.35 232.17 190.76"/>
        <polygon class="cls-142" points="233.35 189.82 195.15 142.79 169.71 165.5 112.63 98.87 182.32 84.44 206.93 124.25 245.18 131.24 233.35 189.82"/>
        <polygon class="cls-143" points="234.65 188.96 196.34 141.79 170.82 164.57 113.57 97.75 183.46 83.27 208.15 123.2 246.51 130.21 234.65 188.96"/>
        <polygon class="cls-143" points="236.04 188.18 197.62 140.87 172.04 163.71 114.62 96.7 184.71 82.18 209.47 122.22 247.94 129.26 236.04 188.18"/>
        <polygon class="cls-143" points="237.54 187.46 199.01 140.02 173.34 162.93 115.77 95.73 186.06 81.17 210.88 121.32 249.46 128.38 237.54 187.46"/>
        <polygon class="cls-129" points="239.12 186.82 200.48 139.24 174.74 162.22 117 94.82 187.49 80.22 212.38 120.49 251.08 127.56 239.12 186.82"/>
        <polygon class="cls-129" points="240.78 186.25 202.03 138.53 176.22 161.57 118.31 93.99 189.01 79.34 213.97 119.72 252.78 126.82 240.78 186.25"/>
        <polygon class="cls-129" points="242.52 185.74 203.66 137.89 177.78 161 119.71 93.22 190.6 78.54 215.64 119.03 254.55 126.15 242.52 185.74"/>
        <polygon class="cls-130" points="244.33 185.31 205.36 137.32 179.4 160.5 121.17 92.53 192.26 77.8 217.37 118.41 256.39 125.55 244.33 185.31"/>
        <polygon class="cls-126" points="246.2 184.94 207.12 136.82 181.09 160.06 122.69 91.9 193.99 77.13 219.16 117.85 258.3 125.01 246.2 184.94"/>
        <polygon class="cls-126" points="248.13 184.64 208.94 136.39 182.84 159.69 124.27 91.34 195.77 76.53 221.02 117.37 260.26 124.54 248.13 184.64"/>
        <polygon class="cls-157" points="250.11 184.41 210.81 136.02 184.63 159.39 125.9 90.84 197.6 75.99 222.92 116.94 262.28 124.14 250.11 184.41"/>
        <polygon class="cls-157" points="252.13 184.24 212.72 135.71 186.47 159.15 127.58 90.41 199.48 75.52 224.87 116.58 264.33 123.8 252.13 184.24"/>
        <polygon class="cls-162" points="254.19 184.14 214.67 135.47 188.35 158.97 129.29 90.04 201.39 75.11 226.85 116.29 266.43 123.53 254.19 184.14"/>
        <polygon class="cls-108" points="256.28 184.09 216.65 135.29 190.26 158.86 131.03 89.74 203.33 74.76 228.86 116.06 268.55 123.32 256.28 184.09"/>
        <polygon class="cls-108" points="258.4 184.11 218.66 135.18 192.19 158.81 132.8 89.5 205.3 74.48 230.9 115.89 270.7 123.17 258.4 184.11"/>
        <polygon class="cls-108" points="260.53 184.2 220.68 135.12 194.14 158.82 134.58 89.32 207.28 74.25 232.96 115.78 272.87 123.08 260.53 184.2"/>
        <polygon class="cls-59" points="262.67 184.34 222.71 135.13 196.09 158.89 136.38 89.19 209.28 74.09 235.03 115.74 275.04 123.06 262.67 184.34"/>
        <polygon class="cls-59" points="264.82 184.54 224.75 135.2 198.06 159.02 138.18 89.13 211.28 73.99 237.1 115.75 277.22 123.09 264.82 184.54"/>
        <polygon class="cls-59" points="266.96 184.8 226.78 135.32 200.02 159.21 139.98 89.13 213.28 73.94 239.17 115.82 279.4 123.18 266.96 184.8"/>
        <polygon class="cls-46" points="269.1 185.11 228.81 135.5 201.98 159.46 141.77 89.18 215.27 73.96 241.23 115.94 281.58 123.33 269.1 185.11"/>
        <polygon class="cls-47" points="271.23 185.49 230.82 135.74 203.92 159.76 143.54 89.3 217.25 74.03 243.27 116.13 283.73 123.53 271.23 185.49"/>
        <polygon class="cls-44" points="273.33 185.92 232.81 136.03 205.83 160.12 145.29 89.46 219.2 74.15 245.3 116.37 285.87 123.79 273.33 185.92"/>
        <polygon class="cls-44" points="275.4 186.4 234.78 136.38 207.72 160.53 147.02 89.68 221.13 74.33 247.3 116.66 287.98 124.1 275.4 186.4"/>
        <polygon class="cls-43" points="277.44 186.94 236.71 136.78 209.58 161 148.71 89.96 223.02 74.57 249.26 117.01 290.05 124.47 277.44 186.94"/>
        <polygon class="cls-151" points="279.44 187.53 238.59 137.24 211.39 161.52 150.36 90.29 224.87 74.85 251.18 117.41 292.08 124.89 279.44 187.53"/>
        <polygon class="cls-151" points="281.39 188.17 240.43 137.74 213.16 162.09 151.96 90.67 226.67 75.19 253.06 117.87 294.06 125.37 281.39 188.17"/>
        <polygon class="cls-151" points="283.28 188.86 242.22 138.3 214.87 162.72 153.51 91.1 228.42 75.58 254.88 118.37 296 125.89 283.28 188.86"/>
        <polygon class="cls-147" points="285.12 189.6 243.95 138.91 216.53 163.39 155 91.58 230.11 76.02 256.64 118.92 297.87 126.47 285.12 189.6"/>
        <polygon class="cls-147" points="286.89 190.4 245.61 139.56 218.11 164.11 156.42 92.11 231.73 76.51 258.33 119.53 299.67 127.09 286.89 190.4"/>
        <polygon class="cls-148" points="288.58 191.24 247.19 140.27 219.62 164.88 157.77 92.69 233.28 77.04 259.95 120.18 301.4 127.76 288.58 191.24"/>
        <polygon class="cls-176" points="290.2 192.12 248.7 141.02 221.06 165.7 159.04 93.31 234.75 77.63 261.49 120.88 303.05 128.48 290.2 192.12"/>
        <polygon class="cls-177" points="291.73 193.06 250.12 141.82 222.4 166.56 160.22 93.98 236.13 78.26 262.94 121.62 304.61 129.24 291.73 193.06"/>
        <polygon class="cls-177" points="293.16 194.04 251.44 142.66 223.65 167.47 161.31 94.7 237.42 78.93 264.3 122.41 306.08 130.05 293.16 194.04"/>
        <polygon class="cls-38" points="294.5 195.06 252.67 143.55 224.81 168.42 162.29 95.46 238.61 79.65 265.56 123.25 307.45 130.91 294.5 195.06"/>
        <polygon class="cls-38" points="295.73 196.13 253.79 144.48 225.85 169.42 163.18 96.27 239.69 80.42 266.72 124.12 308.72 131.81 295.73 196.13"/>
        <polygon class="cls-37" points="296.85 197.24 254.8 145.46 226.79 170.46 163.95 97.12 240.66 81.22 267.76 125.05 309.87 132.75 296.85 197.24"/>
        <polygon class="cls-36" points="297.85 198.39 255.69 146.47 227.61 171.54 164.6 98.01 241.52 82.07 268.68 126.01 310.9 133.73 297.85 198.39"/>
        <polygon class="cls-36" points="298.72 199.58 256.45 147.53 228.3 172.67 165.13 98.94 242.24 82.96 269.48 127.01 311.81 134.76 298.72 199.58"/>
        <polygon class="cls-36" points="299.47 200.81 257.08 148.63 228.85 173.83 165.52 99.91 242.84 83.89 270.15 128.05 312.59 135.82 299.47 200.81"/>
        <polygon class="cls-123" points="300.07 202.08 257.58 149.76 229.27 175.03 165.77 100.91 243.29 84.86 270.67 129.14 313.22 136.92 300.07 202.08"/>
        <polygon class="cls-123" points="300.53 203.39 257.92 150.93 229.55 176.27 165.89 101.96 243.61 85.86 271.05 130.26 313.72 138.06 300.53 203.39"/>
        <polygon class="cls-123" points="300.83 204.74 258.12 152.14 229.67 177.54 165.84 103.05 243.77 86.9 271.29 131.41 314.06 139.24 300.83 204.74"/>
        <polygon class="cls-118" points="300.98 206.12 258.16 153.39 229.64 178.86 165.65 104.17 243.77 87.98 271.36 132.61 314.24 140.45 300.98 206.12"/>
        <polygon class="cls-117" points="300.97 207.54 258.03 154.67 229.44 180.2 165.28 105.32 243.61 89.1 271.27 133.84 314.26 141.7 300.97 207.54"/>
        <polygon class="cls-120" points="300.78 208.99 257.74 155.99 229.07 181.58 164.75 106.51 243.27 90.24 271 135.1 314.11 142.98 300.78 208.99"/>
        <polygon class="cls-120" points="300.42 210.48 257.26 157.34 228.52 183 164.04 107.73 242.76 91.43 270.56 136.4 313.78 144.3 300.42 210.48"/>
        <polygon class="cls-120" points="299.87 211.99 256.61 158.72 227.79 184.45 163.14 108.99 242.07 92.64 269.94 137.72 313.26 145.65 299.87 211.99"/>
        <polygon class="cls-164" points="299.38 213.21 256 159.8 227.12 185.59 162.3 109.94 241.43 93.55 269.37 138.75 312.8 146.69 299.38 213.21"/>
        <polygon class="cls-165" points="299.16 214.11 255.68 160.56 226.72 186.42 161.74 110.58 241.06 94.14 269.08 139.46 312.62 147.42 299.16 214.11"/>
        <polygon class="cls-165" points="298.99 215.11 255.4 161.43 226.36 187.35 161.22 111.32 240.75 94.84 268.83 140.27 312.49 148.26 298.99 215.11"/>
        <polygon class="cls-161" points="298.87 216.21 255.17 162.4 226.06 188.39 160.75 112.16 240.48 95.64 268.63 141.19 312.4 149.19 298.87 216.21"/>
        <polygon class="cls-163" points="298.79 217.41 254.98 163.46 225.8 189.51 160.32 113.09 240.25 96.53 268.48 142.19 312.36 150.22 298.79 217.41"/>
        <polygon class="cls-163" points="298.76 218.69 254.84 164.6 225.58 190.72 159.94 114.11 240.07 97.51 268.37 143.28 312.36 151.33 298.76 218.69"/>
        <polygon class="cls-160" points="298.77 220.05 254.74 165.83 225.41 192.01 159.61 115.21 239.94 98.57 268.31 144.46 312.41 152.52 298.77 220.05"/>
        <polygon class="cls-125" points="298.83 221.49 254.69 167.13 225.29 193.38 159.32 116.39 239.85 99.7 268.29 145.7 312.5 153.79 298.83 221.49"/>
        <polygon class="cls-124" points="298.94 222.99 254.69 168.5 225.21 194.81 159.08 117.63 239.81 100.9 268.32 147.02 312.64 155.13 298.94 222.99"/>
        <polygon class="cls-55" points="299.09 224.56 254.73 169.93 225.18 196.31 158.88 118.93 239.82 102.17 268.4 148.4 312.83 156.53 299.09 224.56"/>
        <polygon class="cls-55" points="299.29 226.19 254.82 171.42 225.19 197.87 158.73 120.3 239.87 103.49 268.52 149.84 313.06 157.98 299.29 226.19"/>
        <polygon class="cls-54" points="299.54 227.86 254.95 172.96 225.26 199.47 158.63 121.71 239.97 104.86 268.69 151.32 313.34 159.49 299.54 227.86"/>
        <polygon class="cls-60" points="299.83 229.58 255.13 174.55 225.36 201.12 158.57 123.17 240.11 106.28 268.91 152.85 313.66 161.04 299.83 229.58"/>
        <polygon class="cls-60" points="300.17 231.34 255.36 176.17 225.52 202.81 158.57 124.67 240.3 107.73 269.17 154.43 314.04 162.63 300.17 231.34"/>
        <polygon class="cls-61" points="300.55 233.13 255.64 177.83 225.72 204.54 158.6 126.2 240.54 109.22 269.48 156.03 314.46 164.26 300.55 233.13"/>
        <polygon class="cls-79" points="300.98 234.95 255.96 179.51 225.97 206.28 158.69 127.76 240.82 110.74 269.83 157.66 314.92 165.91 300.98 234.95"/>
        <polygon class="cls-79" points="301.46 236.79 256.33 181.22 226.26 208.06 158.82 129.33 241.16 112.28 270.24 159.31 315.43 167.58 301.46 236.79"/>
        <polygon class="cls-94" points="301.99 238.65 256.74 182.94 226.61 209.84 158.99 130.93 241.53 113.83 270.69 160.98 315.99 169.26 301.99 238.65"/>
        <polygon class="cls-94" points="302.56 240.51 257.2 184.66 227 211.63 159.22 132.53 241.96 115.39 271.18 162.65 316.6 170.96 302.56 240.51"/>
        <polygon class="cls-95" points="303.18 242.38 257.71 186.4 227.43 213.43 159.49 134.13 242.43 116.95 271.73 164.33 317.25 172.66 303.18 242.38"/>
        <polygon class="cls-98" points="303.85 244.24 258.27 188.13 227.92 215.23 159.81 135.74 242.95 118.51 272.32 166.01 317.95 174.35 303.85 244.24"/>
        <polygon class="cls-99" points="304.56 246.1 258.87 189.85 228.45 217.01 160.18 137.33 243.52 120.06 272.95 167.67 318.7 176.04 304.56 246.1"/>
        <polygon class="cls-99" points="305.32 247.94 259.53 191.55 229.03 218.78 160.59 138.91 244.14 121.6 273.64 169.32 319.5 177.71 305.32 247.94"/>
        <polygon class="cls-100" points="306.13 249.76 260.23 193.23 229.65 220.53 161.05 140.47 244.8 123.12 274.37 170.95 320.34 179.36 306.13 249.76"/>
        <polygon class="cls-100" points="306.99 251.55 260.97 194.89 230.32 222.25 161.56 142 245.51 124.61 275.15 172.56 321.23 180.99 306.99 251.55"/>
        <polygon class="cls-100" points="307.89 253.31 261.77 196.52 231.05 223.94 162.12 143.5 246.27 126.06 275.98 174.13 322.17 182.58 307.89 253.31"/>
        <polygon class="cls-104" points="308.85 255.04 262.61 198.1 231.82 225.6 162.72 144.95 247.07 127.48 276.86 175.66 323.16 184.13 308.85 255.04"/>
        <polygon class="cls-105" points="309.85 256.71 263.5 199.64 232.63 227.2 163.38 146.37 247.92 128.85 277.78 177.15 324.19 185.64 309.85 256.71"/>
        <polygon class="cls-105" points="310.89 258.34 264.44 201.13 233.5 228.76 164.08 147.73 248.83 130.18 278.76 178.59 325.28 187.1 310.89 258.34"/>
        <polygon class="cls-102" points="311.99 259.91 265.43 202.57 234.41 230.26 164.82 149.04 249.78 131.44 279.78 179.97 326.41 188.5 311.99 259.91"/>
        <polygon class="cls-102" points="313.14 261.41 266.46 203.94 235.37 231.69 165.62 150.28 250.77 132.64 280.85 181.28 327.59 189.83 313.14 261.41"/>
        <polygon class="cls-101" points="314.33 262.85 267.54 205.24 236.38 233.06 166.47 151.46 251.82 133.78 281.96 182.53 328.81 191.1 314.33 262.85"/>
        <polygon class="cls-76" points="315.57 264.21 268.68 206.47 237.44 234.35 167.36 152.56 252.91 134.84 283.13 183.71 330.09 192.3 315.57 264.21"/>
        <polygon class="cls-75" points="316.86 265.5 269.86 207.62 238.55 235.57 168.3 153.58 254.06 135.82 284.34 184.8 331.41 193.41 316.86 265.5"/>
        <polygon class="cls-77" points="318.2 266.69 271.08 208.68 239.7 236.69 169.29 154.52 255.25 136.71 285.6 185.81 332.79 194.44 318.2 266.69"/>
        <polygon class="cls-80" points="319.59 267.8 272.36 209.64 240.91 237.73 170.33 155.36 256.49 137.51 286.92 186.72 334.21 195.37 319.59 267.8"/>
        <polygon class="cls-80" points="321.02 268.8 273.69 210.51 242.16 238.66 171.42 156.1 257.78 138.21 288.28 187.54 335.68 196.21 321.02 268.8"/>
        <polygon class="cls-80" points="322.51 269.7 275.06 211.28 243.46 239.49 172.56 156.74 259.12 138.81 289.68 188.25 337.2 196.94 322.51 269.7"/>
        <polygon class="cls-68" points="324.04 270.49 276.49 211.93 244.81 240.21 173.74 157.27 260.5 139.29 291.14 188.85 338.77 197.56 324.04 270.49"/>
        <polygon class="cls-68" points="325.63 271.17 277.96 212.47 246.21 240.82 174.98 157.68 261.94 139.66 292.65 189.34 340.38 198.07 325.63 271.17"/>
        <polygon class="cls-70" points="327.26 271.72 279.48 212.89 247.66 241.3 176.26 157.97 263.42 139.91 294.21 189.7 342.05 198.45 327.26 271.72"/>
        <polygon class="cls-70" points="328.94 272.14 281.05 213.17 249.16 241.65 177.6 158.13 264.96 140.03 295.81 189.93 343.76 198.7 328.94 272.14"/>
        <polygon class="cls-71" points="330.67 272.43 282.67 213.33 250.71 241.87 178.98 158.15 266.54 140.01 297.47 190.03 345.53 198.82 330.67 272.43"/>
        <polygon class="cls-97" points="332.45 272.58 284.34 213.34 252.3 241.95 180.41 158.04 268.18 139.86 299.17 189.99 347.34 198.8 332.45 272.58"/>
        <polygon class="cls-97" points="334.28 272.58 286.06 213.21 253.95 241.88 181.9 157.78 269.86 139.56 300.92 189.8 349.21 198.64 334.28 272.58"/>
        <polygon class="cls-97" points="336.16 272.43 287.83 212.92 255.65 241.66 183.43 157.37 271.59 139.1 302.73 189.46 351.12 198.32 336.16 272.43"/>
        <polygon class="cls-88" points="338.09 272.12 289.65 212.48 257.39 241.28 185.01 156.8 273.37 138.49 304.58 188.97 353.08 197.84 338.09 272.12"/>
        <polygon class="cls-88" points="340.07 271.65 291.52 211.87 259.19 240.73 186.64 156.06 275.2 137.71 306.48 188.3 355.1 197.2 340.07 271.65"/>
        <polygon class="cls-88" points="342.1 271 293.44 211.09 261.03 240.02 188.32 155.16 277.09 136.77 308.44 187.47 357.16 196.39 342.1 271"/>
        <polygon class="cls-90" points="344.18 270.18 295.41 210.13 262.93 239.13 190.05 154.07 279.02 135.64 310.44 186.46 359.27 195.4 344.18 270.18"/>
        <polygon class="cls-87" points="346.3 269.18 297.43 209 264.87 238.06 191.83 152.81 281 134.34 312.49 185.27 361.44 194.23 346.3 269.18"/>
        <polygon class="cls-87" points="348.48 267.99 299.5 207.67 266.87 236.8 193.66 151.36 283.03 132.85 314.59 183.89 363.65 192.87 348.48 267.99"/>
        <polygon class="cls-91" points="350.71 266.61 301.62 206.15 268.92 235.35 195.55 149.71 285.11 131.16 316.75 182.32 365.91 191.32 350.71 266.61"/>
        <polygon class="cls-92" points="352.83 265.21 303.62 204.62 270.85 233.88 197.32 148.05 287.09 129.45 318.79 180.73 368.07 189.75 352.83 265.21"/>
        <polygon class="cls-89" points="354.85 264.03 305.53 203.3 272.68 232.63 198.98 146.61 288.95 127.97 320.73 179.36 370.11 188.4 354.85 264.03"/>
        <polygon class="cls-84" points="356.86 263 307.44 202.14 274.52 231.53 200.65 145.32 290.82 126.64 322.67 178.15 372.17 187.2 356.86 263"/>
        <polygon class="cls-84" points="358.89 262.13 309.35 201.13 276.35 230.59 202.33 144.18 292.7 125.46 324.61 177.09 374.22 186.16 358.89 262.13"/>
        <polygon class="cls-84" points="360.91 261.4 311.26 200.26 278.19 229.79 204 143.19 294.57 124.43 326.56 176.17 376.28 185.26 360.91 261.4"/>
        <polygon class="cls-106" points="362.93 260.81 313.17 199.54 280.03 229.13 205.68 142.34 296.45 123.54 328.51 175.39 378.34 184.51 362.93 260.81"/>
        <polygon class="cls-107" points="364.96 260.36 315.09 198.95 281.87 228.61 207.35 141.63 298.33 122.78 330.46 174.75 380.39 183.89 364.96 260.36"/>
        <polygon class="cls-134" points="366.98 260.04 317 198.5 283.71 228.22 209.03 141.05 300.2 122.16 332.4 174.24 382.45 183.4 366.98 260.04"/>
        <polygon class="cls-131" points="369 259.85 318.91 198.17 285.55 227.96 210.7 140.6 302.07 121.67 334.35 173.86 384.5 183.04 369 259.85"/>
        <polygon class="cls-131" points="371.01 259.78 320.81 197.97 287.38 227.82 212.37 140.26 303.94 121.29 336.28 173.61 386.55 182.8 371.01 259.78"/>
        <polygon class="cls-132" points="373.02 259.83 322.71 197.88 289.21 227.8 214.03 140.05 305.81 121.04 338.22 173.47 388.6 182.68 373.02 259.83"/>
        <polygon class="cls-132" points="375.03 260 324.61 197.91 291.03 227.89 215.68 139.96 307.66 120.9 340.15 173.44 390.63 182.68 375.03 260"/>
        <polygon class="cls-135" points="377.02 260.27 326.49 198.05 292.84 228.1 217.33 139.97 309.51 120.87 342.07 173.53 392.66 182.78 377.02 260.27"/>
        <polygon class="cls-116" points="379.01 260.65 328.37 198.29 294.64 228.41 218.97 140.08 311.35 120.95 343.98 173.72 394.69 182.99 379.01 260.65"/>
        <polygon class="cls-116" points="380.99 261.13 330.24 198.64 296.44 228.81 220.6 140.3 313.18 121.12 345.88 174.01 396.7 183.3 380.99 261.13"/>
        <polygon class="cls-116" points="382.95 261.7 332.09 199.08 298.22 229.32 222.22 140.61 315 121.39 347.77 174.39 398.7 183.71 382.95 261.7"/>
        <polygon class="cls-115" points="384.9 262.37 333.93 199.61 299.99 229.92 223.82 141.02 316.8 121.76 349.64 174.87 400.68 184.21 384.9 262.37"/>
        <polygon class="cls-115" points="386.84 263.12 335.76 200.23 301.74 230.6 225.41 141.51 318.6 122.21 351.5 175.44 402.66 184.79 386.84 263.12"/>
        <polygon class="cls-115" points="388.77 263.96 337.58 200.93 303.48 231.37 226.99 142.08 320.37 122.74 353.35 176.08 404.61 185.46 388.77 263.96"/>
        <polygon class="cls-109" points="390.67 264.87 339.37 201.7 305.21 232.21 228.55 142.74 322.13 123.35 355.18 176.81 406.55 186.2 390.67 264.87"/>
        <polygon class="cls-110" points="392.56 265.86 341.15 202.56 306.91 233.13 230.09 143.46 323.88 124.03 357 177.61 408.48 187.02 392.56 265.86"/>
        <polygon class="cls-110" points="394.43 266.92 342.92 203.48 308.6 234.11 231.61 144.25 325.6 124.78 358.79 178.47 410.38 187.91 394.43 266.92"/>
        <polygon class="cls-114" points="396.29 268.04 344.66 204.46 310.27 235.16 233.12 145.11 327.3 125.6 360.57 179.4 412.27 188.86 396.29 268.04"/>
        <polygon class="cls-114" points="398.12 269.22 346.38 205.51 311.92 236.27 234.6 146.03 328.99 126.48 362.32 180.39 414.13 189.87 398.12 269.22"/>
        <polygon class="cls-113" points="399.92 270.45 348.07 206.61 313.54 237.44 236.06 147 330.65 127.41 364.05 181.44 415.98 190.94 399.92 270.45"/>
        <polygon class="cls-144" points="401.71 271.74 349.75 207.76 315.14 238.65 237.5 148.03 332.29 128.39 365.76 182.54 417.8 192.06 401.71 271.74"/>
        <polygon class="cls-144" points="403.47 273.07 351.4 208.95 316.72 239.91 238.91 149.1 333.9 129.42 367.45 183.68 419.59 193.22 403.47 273.07"/>
        <polygon class="cls-144" points="405.2 274.44 353.02 210.19 318.27 241.22 240.29 150.21 335.49 130.49 369.1 184.86 421.36 194.42 405.2 274.44"/>
        <polygon class="cls-140" points="406.91 275.85 354.62 211.46 319.79 242.56 241.65 151.36 337.04 131.6 370.73 186.09 423.1 195.66 406.91 275.85"/>
        <polygon class="cls-140" points="408.59 277.3 356.19 212.77 321.29 243.93 242.98 152.54 338.58 132.73 372.34 187.34 424.81 196.94 408.59 277.3"/>
        <polygon class="cls-74" points="410.24 278.77 357.72 214.11 322.75 245.33 244.28 153.75 340.08 133.9 373.91 188.62 426.49 198.24 410.24 278.77"/>
        <polygon class="cls-74" points="411.85 280.26 359.23 215.47 324.19 246.76 245.55 154.98 341.55 135.09 375.45 189.93 428.14 199.57 411.85 280.26"/>
        <polygon class="cls-73" points="413.44 281.78 360.71 216.85 325.59 248.2 246.79 156.23 342.98 136.3 376.96 191.25 429.76 200.91 413.44 281.78"/>
        <polygon class="cls-93" points="414.99 283.3 362.15 218.24 326.96 249.66 247.99 157.5 344.39 137.53 378.43 192.59 431.35 202.27 414.99 283.3"/>
        <polygon class="cls-93" points="416.51 284.84 363.56 219.64 328.29 251.13 249.16 158.77 345.76 138.76 379.88 193.94 432.9 203.64 416.51 284.84"/>
        <polygon class="cls-96" points="417.99 286.39 364.93 221.05 329.59 252.6 250.3 160.06 347.09 140 381.28 195.3 434.42 205.02 417.99 286.39"/>
        <polygon class="cls-82" points="419.43 287.93 366.26 222.46 330.85 254.07 251.39 161.34 348.39 141.24 382.65 196.65 435.89 206.39 419.43 287.93"/>
        <polygon class="cls-82" points="420.84 289.47 367.56 223.86 332.07 255.55 252.45 162.62 349.65 142.48 383.98 198 437.33 207.76 420.84 289.47"/>
        <polygon class="cls-83" points="422.21 291 368.82 225.26 333.26 257.01 253.47 163.89 350.87 143.71 385.27 199.35 438.74 209.13 422.21 291"/>
        <polygon class="cls-78" points="423.53 292.52 370.03 226.64 334.4 258.46 254.45 165.14 352.05 144.93 386.52 200.68 440.1 210.48 423.53 292.52"/>
        <polygon class="cls-78" points="424.82 294.03 371.21 228.01 335.5 259.89 255.38 166.39 353.19 146.12 387.73 201.99 441.41 211.81 424.82 294.03"/>
        <polygon class="cls-78" points="426.06 295.51 372.34 229.36 336.56 261.3 256.28 167.6 354.28 147.3 388.89 203.28 442.69 213.12 426.06 295.51"/>
        <polygon class="cls-103" points="427.26 296.96 373.42 230.68 337.57 262.69 257.13 168.8 355.33 148.45 390.01 204.55 443.92 214.41 427.26 296.96"/>
        <polygon class="cls-85" points="428.41 298.39 374.47 231.96 338.54 264.04 257.93 169.96 356.34 149.57 391.09 205.78 445.11 215.67 428.41 298.39"/>
        <polygon class="cls-86" points="429.51 299.77 375.46 233.22 339.46 265.36 258.69 171.08 357.29 150.66 392.12 206.98 446.24 216.88 429.51 299.77"/>
        <polygon class="cls-81" points="430.57 301.12 376.41 234.43 340.33 266.64 259.4 172.17 358.2 151.7 393.1 208.14 447.34 218.06 430.57 301.12"/>
        <polygon class="cls-81" points="431.58 302.43 377.3 235.6 341.16 267.87 260.06 173.21 359.06 152.7 394.03 209.26 448.38 219.2 431.58 302.43"/>
        <polygon class="cls-72" points="432.53 303.68 378.15 236.72 341.93 269.06 260.66 174.21 359.87 153.65 394.91 210.32 449.37 220.29 432.53 303.68"/>
        <polygon class="cls-133" points="433.44 304.88 378.95 237.78 342.65 270.19 261.22 175.15 360.63 154.55 395.74 211.34 450.31 221.32 433.44 304.88"/>
        <polygon class="cls-133" points="434.29 306.03 379.69 238.79 343.32 271.26 261.73 176.03 361.34 155.39 396.52 212.29 451.19 222.29 434.29 306.03"/>
        <polygon class="cls-128" points="435.09 307.11 380.38 239.74 343.94 272.27 262.18 176.85 361.99 156.17 397.24 213.18 452.03 223.21 435.09 307.11"/>
        <polygon class="cls-127" points="435.83 308.12 381.01 240.62 344.5 273.22 262.57 177.6 362.58 156.88 397.91 214.01 452.8 224.05 435.83 308.12"/>
        <polygon class="cls-127" points="436.52 309.07 381.59 241.42 345 274.09 262.91 178.28 363.12 157.52 398.52 214.76 453.52 224.83 436.52 309.07"/>
        <polygon class="cls-65" points="437.15 309.93 382.11 242.16 345.45 274.89 263.19 178.88 363.61 158.08 399.07 215.44 454.19 225.52 437.15 309.93"/>
        <polygon class="cls-65" points="437.72 310.72 382.56 242.81 345.83 275.6 263.41 179.41 364.03 158.56 399.56 216.04 454.79 226.14 437.72 310.72"/>
        <polygon class="cls-64" points="438.23 311.42 382.96 243.37 346.16 276.23 263.58 179.85 364.39 158.96 400 216.55 455.34 226.67 438.23 311.42"/>
        <polygon class="cls-67" points="438.68 312.03 383.3 243.85 346.42 276.77 263.68 180.2 364.69 159.27 400.37 216.97 455.82 227.12 438.68 312.03"/>
        <polygon class="cls-66" points="439.06 312.55 383.58 244.23 346.63 277.22 263.71 180.45 364.93 159.48 400.68 217.3 456.24 227.46 439.06 312.55"/>
        <polygon class="cls-66" points="439.38 312.97 383.79 244.51 346.76 277.57 263.69 180.61 365.11 159.6 400.92 217.53 456.59 227.71 439.38 312.97"/>
        <polygon class="cls-69" points="439.64 313.28 383.94 244.69 346.84 277.81 263.6 180.66 365.22 159.61 401.1 217.66 456.88 227.86 439.64 313.28"/>
        <polygon class="cls-69" points="439.83 313.49 384.02 244.76 346.84 277.95 263.44 180.61 365.26 159.51 401.22 217.67 457.11 227.9 439.83 313.49"/>
      </g>
    </g>
  </g>
</svg>