<?xml version="1.0" encoding="UTF-8"?>
<svg id="Layer_2" data-name="Layer 2" xmlns="http://www.w3.org/2000/svg" xmlns:xlink="http://www.w3.org/1999/xlink" viewBox="0 0 348.69 200">
  <defs>
    <style>
      .cls-1 {
        stroke: #ff5034;
        stroke-width: 14.79px;
      }

      .cls-1, .cls-2, .cls-3, .cls-4, .cls-5, .cls-6, .cls-7, .cls-8, .cls-9, .cls-10, .cls-11, .cls-12, .cls-13, .cls-14, .cls-15, .cls-16, .cls-17, .cls-18, .cls-19, .cls-20, .cls-21, .cls-22, .cls-23, .cls-24, .cls-25, .cls-26, .cls-27, .cls-28, .cls-29, .cls-30, .cls-31, .cls-32, .cls-33, .cls-34, .cls-35, .cls-36, .cls-37, .cls-38, .cls-39, .cls-40, .cls-41, .cls-42, .cls-43, .cls-44, .cls-45, .cls-46, .cls-47, .cls-48, .cls-49, .cls-50, .cls-51, .cls-52, .cls-53, .cls-54, .cls-55, .cls-56, .cls-57, .cls-58, .cls-59, .cls-60, .cls-61, .cls-62, .cls-63, .cls-64, .cls-65, .cls-66, .cls-67, .cls-68, .cls-69, .cls-70, .cls-71, .cls-72, .cls-73, .cls-74, .cls-75, .cls-76, .cls-77, .cls-78, .cls-79, .cls-80, .cls-81, .cls-82, .cls-83, .cls-84, .cls-85, .cls-86, .cls-87, .cls-88, .cls-89, .cls-90, .cls-91, .cls-92, .cls-93, .cls-94, .cls-95, .cls-96, .cls-97, .cls-98, .cls-99, .cls-100, .cls-101, .cls-102, .cls-103, .cls-104, .cls-105, .cls-106, .cls-107, .cls-108, .cls-109, .cls-110, .cls-111, .cls-112, .cls-113, .cls-114, .cls-115, .cls-116, .cls-117, .cls-118, .cls-119, .cls-120, .cls-121, .cls-122, .cls-123, .cls-124, .cls-125, .cls-126, .cls-127, .cls-128, .cls-129, .cls-130, .cls-131, .cls-132, .cls-133, .cls-134, .cls-135, .cls-136, .cls-137, .cls-138, .cls-139, .cls-140, .cls-141, .cls-142, .cls-143, .cls-144, .cls-145, .cls-146, .cls-147, .cls-148, .cls-149, .cls-150, .cls-151, .cls-152, .cls-153, .cls-154, .cls-155, .cls-156, .cls-157, .cls-158, .cls-159, .cls-160, .cls-161, .cls-162, .cls-163, .cls-164, .cls-165, .cls-166, .cls-167, .cls-168, .cls-169, .cls-170, .cls-171, .cls-172, .cls-173, .cls-174, .cls-175, .cls-176, .cls-177, .cls-178, .cls-179, .cls-180, .cls-181, .cls-182, .cls-183, .cls-184, .cls-185, .cls-186, .cls-187, .cls-188, .cls-189, .cls-190, .cls-191, .cls-192, .cls-193, .cls-194, .cls-195, .cls-196, .cls-197, .cls-198, .cls-199, .cls-200, .cls-201, .cls-202, .cls-203 {
        fill: none;
      }

      .cls-1, .cls-2, .cls-3, .cls-4, .cls-5, .cls-6, .cls-7, .cls-8, .cls-10, .cls-11, .cls-12, .cls-13, .cls-14, .cls-15, .cls-16, .cls-17, .cls-18, .cls-19, .cls-20, .cls-21, .cls-22, .cls-23, .cls-24, .cls-25, .cls-26, .cls-27, .cls-28, .cls-30, .cls-31, .cls-32, .cls-33, .cls-34, .cls-35, .cls-36, .cls-37, .cls-38, .cls-39, .cls-40, .cls-41, .cls-42, .cls-43, .cls-44, .cls-45, .cls-46, .cls-47, .cls-48, .cls-49, .cls-50, .cls-51, .cls-52, .cls-53, .cls-54, .cls-55, .cls-56, .cls-57, .cls-58, .cls-59, .cls-60, .cls-61, .cls-62, .cls-63, .cls-64, .cls-65, .cls-66, .cls-67, .cls-68, .cls-69, .cls-70, .cls-71, .cls-72, .cls-73, .cls-74, .cls-75, .cls-76, .cls-77, .cls-78, .cls-79, .cls-80, .cls-81, .cls-82, .cls-83, .cls-84, .cls-85, .cls-86, .cls-87, .cls-88, .cls-90, .cls-91, .cls-92, .cls-93, .cls-94, .cls-95, .cls-96, .cls-97, .cls-98, .cls-99, .cls-100, .cls-101, .cls-102, .cls-103, .cls-104, .cls-105, .cls-106, .cls-107, .cls-108, .cls-109, .cls-110, .cls-111, .cls-112, .cls-113, .cls-114, .cls-115, .cls-116, .cls-117, .cls-118, .cls-119, .cls-120, .cls-121, .cls-122, .cls-123, .cls-124, .cls-125, .cls-126, .cls-127, .cls-128, .cls-129, .cls-130, .cls-131, .cls-132, .cls-133, .cls-134, .cls-135, .cls-136, .cls-137, .cls-138, .cls-140, .cls-141, .cls-142, .cls-143, .cls-144, .cls-145, .cls-146, .cls-147, .cls-148, .cls-149, .cls-150, .cls-151, .cls-152, .cls-153, .cls-154, .cls-155, .cls-156, .cls-157, .cls-158, .cls-159, .cls-160, .cls-161, .cls-162, .cls-164, .cls-165, .cls-166, .cls-167, .cls-168, .cls-169, .cls-170, .cls-171, .cls-172, .cls-173, .cls-175, .cls-176, .cls-177, .cls-178, .cls-179, .cls-180, .cls-181, .cls-182, .cls-183, .cls-184, .cls-185, .cls-186, .cls-187, .cls-188, .cls-189, .cls-190, .cls-191, .cls-192, .cls-193, .cls-194, .cls-195, .cls-196, .cls-197, .cls-198, .cls-199, .cls-200, .cls-201, .cls-202, .cls-203 {
        stroke-miterlimit: 10;
      }

      .cls-2 {
        stroke: #ff211d;
        stroke-width: 7.15px;
      }

      .cls-3 {
        stroke-width: 14.67px;
      }

      .cls-3, .cls-91 {
        stroke: #ff4f33;
      }

      .cls-4 {
        stroke-width: 16.82px;
      }

      .cls-4, .cls-113 {
        stroke: #ff5c3a;
      }

      .cls-5 {
        stroke-width: 17.3px;
      }

      .cls-5, .cls-42 {
        stroke: #ff5f3b;
      }

      .cls-6 {
        stroke: #ff8a51;
        stroke-width: 24.34px;
      }

      .cls-7 {
        stroke: #ff221d;
        stroke-width: 7.27px;
      }

      .cls-8 {
        stroke: #ffa25c;
        stroke-width: 28.16px;
      }

      .cls-9 {
        stroke: #ffa05c;
        stroke-width: 27.93px;
      }

      .cls-9, .cls-139, .cls-174 {
        stroke-miterlimit: 10;
      }

      .cls-10 {
        stroke: #ffa15c;
        stroke-width: 28.04px;
      }

      .cls-11 {
        stroke: #ff4b31;
        stroke-width: 13.96px;
      }

      .cls-12 {
        stroke: #ffa05b;
        stroke-width: 27.81px;
      }

      .cls-13 {
        stroke: #ff824d;
        stroke-width: 23.03px;
      }

      .cls-14 {
        stroke: #ff1a19;
        stroke-width: 5.96px;
      }

      .cls-15 {
        stroke-width: 24.7px;
      }

      .cls-15, .cls-138 {
        stroke: #ff8d52;
      }

      .cls-16 {
        stroke: #ff8c52;
        stroke-width: 24.58px;
      }

      .cls-17 {
        stroke: #ff1b19;
        stroke-width: 6.07px;
      }

      .cls-18 {
        stroke: #ff8b51;
        stroke-width: 24.46px;
      }

      .cls-19 {
        stroke: #ff412c;
        stroke-width: 12.28px;
      }

      .cls-20 {
        stroke: #ff412d;
        stroke-width: 12.4px;
      }

      .cls-21 {
        stroke-width: 14.07px;
      }

      .cls-21, .cls-171 {
        stroke: #ff4c32;
      }

      .cls-22 {
        stroke-width: 23.51px;
      }

      .cls-22, .cls-124 {
        stroke: #ff854e;
      }

      .cls-23 {
        stroke: #ff824c;
        stroke-width: 22.91px;
      }

      .cls-24 {
        stroke: #ff844e;
        stroke-width: 23.27px;
      }

      .cls-25 {
        stroke: #ff814c;
        stroke-width: 22.79px;
      }

      .cls-26 {
        stroke: #ff3c2a;
        stroke-width: 11.57px;
      }

      .cls-204 {
        clip-path: url(#clippath);
      }

      .cls-27 {
        stroke: #ff5235;
        stroke-width: 15.15px;
      }

      .cls-28 {
        stroke-width: 15.87px;
      }

      .cls-28, .cls-165 {
        stroke: #ff5737;
      }

      .cls-29 {
        stroke-width: 0px;
      }

      .cls-30 {
        stroke: #ff241e;
        stroke-width: 7.63px;
      }

      .cls-31 {
        stroke-width: 15.51px;
      }

      .cls-31, .cls-78 {
        stroke: #ff5436;
      }

      .cls-32 {
        stroke: #ff9c5a;
        stroke-width: 27.21px;
      }

      .cls-33 {
        stroke: #ff4930;
        stroke-width: 13.6px;
      }

      .cls-34 {
        stroke: #ff663f;
        stroke-width: 18.37px;
      }

      .cls-35 {
        stroke: #ff5637;
        stroke-width: 15.75px;
      }

      .cls-36 {
        stroke: #ff251e;
        stroke-width: 7.75px;
      }

      .cls-37 {
        stroke: #ff6840;
        stroke-width: 18.73px;
      }

      .cls-38 {
        stroke: #ff2f23;
        stroke-width: 9.42px;
      }

      .cls-39 {
        stroke-width: 9.3px;
      }

      .cls-39, .cls-185 {
        stroke: #ff2e23;
      }

      .cls-40 {
        stroke-width: 18.49px;
      }

      .cls-40, .cls-43 {
        stroke: #ff673f;
      }

      .cls-41 {
        stroke: #ff2a21;
        stroke-width: 8.58px;
      }

      .cls-42 {
        stroke-width: 17.18px;
      }

      .cls-43 {
        stroke-width: 18.61px;
      }

      .cls-44 {
        stroke: #ff5d3a;
        stroke-width: 16.94px;
      }

      .cls-45 {
        stroke: #ff2c22;
        stroke-width: 8.94px;
      }

      .cls-46 {
        stroke: #ff8850;
        stroke-width: 23.99px;
      }

      .cls-47 {
        stroke: #ff422d;
        stroke-width: 12.52px;
      }

      .cls-48 {
        stroke-width: 25.66px;
      }

      .cls-48, .cls-73 {
        stroke: #ff9355;
      }

      .cls-49 {
        stroke: #ff9154;
        stroke-width: 25.42px;
      }

      .cls-50 {
        stroke: #ff9054;
        stroke-width: 25.3px;
      }

      .cls-51 {
        stroke: #ff9053;
        stroke-width: 25.18px;
      }

      .cls-52 {
        stroke-width: 12.88px;
      }

      .cls-52, .cls-55 {
        stroke: #ff442e;
      }

      .cls-53 {
        stroke: #ff3426;
        stroke-width: 10.25px;
      }

      .cls-54 {
        stroke: #ff1c1a;
        stroke-width: 6.31px;
      }

      .cls-55 {
        stroke-width: 12.76px;
      }

      .cls-56 {
        stroke: #ff402c;
        stroke-width: 12.16px;
      }

      .cls-57 {
        stroke: #ff8a50;
        stroke-width: 24.22px;
      }

      .cls-58 {
        stroke: #ff8950;
        stroke-width: 24.1px;
      }

      .cls-59 {
        stroke-width: 11.93px;
      }

      .cls-59, .cls-125 {
        stroke: #ff3e2b;
      }

      .cls-60 {
        stroke: #ff3f2b;
        stroke-width: 12.04px;
      }

      .cls-61 {
        stroke: #ff884f;
        stroke-width: 23.87px;
      }

      .cls-62 {
        stroke: #ff9254;
        stroke-width: 25.54px;
      }

      .cls-63 {
        stroke: #ff1b1a;
        stroke-width: 6.19px;
      }

      .cls-64 {
        stroke-width: 20.76px;
      }

      .cls-64, .cls-159 {
        stroke: #ff7546;
      }

      .cls-65 {
        stroke: #ff3526;
        stroke-width: 10.37px;
      }

      .cls-66 {
        stroke: #ff7345;
        stroke-width: 20.52px;
      }

      .cls-67 {
        stroke: #ff6b41;
        stroke-width: 19.21px;
      }

      .cls-68 {
        stroke: #ff7446;
        stroke-width: 20.64px;
      }

      .cls-69 {
        stroke: #ff1416;
        stroke-width: 5px;
      }

      .cls-70 {
        stroke: #ff6a40;
        stroke-width: 18.97px;
      }

      .cls-71 {
        stroke: #ff3024;
        stroke-width: 9.54px;
      }

      .cls-72 {
        stroke: #ff7245;
        stroke-width: 20.4px;
      }

      .cls-73 {
        stroke-width: 25.78px;
      }

      .cls-74 {
        stroke-width: 27.45px;
      }

      .cls-74, .cls-75 {
        stroke: #ff9d5a;
      }

      .cls-75 {
        stroke-width: 27.33px;
      }

      .cls-76 {
        stroke: #ff4a31;
        stroke-width: 13.84px;
      }

      .cls-77 {
        stroke: #ff4931;
        stroke-width: 13.72px;
      }

      .cls-78 {
        stroke-width: 15.39px;
      }

      .cls-79 {
        stroke: #ff9657;
        stroke-width: 26.25px;
      }

      .cls-80 {
        stroke: #ff1f1b;
        stroke-width: 6.79px;
      }

      .cls-81 {
        stroke-width: 26.01px;
      }

      .cls-81, .cls-82 {
        stroke: #ff9556;
      }

      .cls-82 {
        stroke-width: 26.13px;
      }

      .cls-83 {
        stroke: #ff9456;
        stroke-width: 25.9px;
      }

      .cls-84 {
        stroke-width: 13.12px;
      }

      .cls-84, .cls-145 {
        stroke: #ff462f;
      }

      .cls-85 {
        stroke: #ff9e5b;
        stroke-width: 27.57px;
      }

      .cls-86 {
        stroke: #ff9f5b;
        stroke-width: 27.69px;
      }

      .cls-87 {
        stroke: #ff231d;
        stroke-width: 7.39px;
      }

      .cls-88 {
        stroke: #ff5135;
        stroke-width: 15.03px;
      }

      .cls-89 {
        stroke: #ffa65f;
        stroke-width: 28.88px;
      }

      .cls-89, .cls-163 {
        stroke-miterlimit: 10;
      }

      .cls-90 {
        stroke: #ff5134;
        stroke-width: 14.91px;
      }

      .cls-91 {
        stroke-width: 14.55px;
      }

      .cls-92 {
        stroke: #ffa75f;
        stroke-width: 29px;
      }

      .cls-93 {
        stroke: #ff231e;
        stroke-width: 7.51px;
      }

      .cls-94 {
        stroke: #ff5335;
        stroke-width: 15.27px;
      }

      .cls-95 {
        stroke: #ff4e33;
        stroke-width: 14.43px;
      }

      .cls-96 {
        stroke: #ff7a48;
        stroke-width: 21.6px;
      }

      .cls-97 {
        stroke: #ff1516;
        stroke-width: 5.12px;
      }

      .cls-98 {
        stroke: #ff7a49;
        stroke-width: 21.72px;
      }

      .cls-99 {
        stroke: #ff7948;
        stroke-width: 21.48px;
      }

      .cls-100 {
        stroke-width: 21.12px;
      }

      .cls-100, .cls-199 {
        stroke: #ff7747;
      }

      .cls-101 {
        stroke: #ff3828;
        stroke-width: 10.85px;
      }

      .cls-102 {
        stroke: #ff7144;
        stroke-width: 20.16px;
      }

      .cls-103 {
        stroke: #ff3326;
        stroke-width: 10.13px;
      }

      .cls-104 {
        stroke: #ff1517;
        stroke-width: 5.24px;
      }

      .cls-105 {
        stroke: #ff3727;
        stroke-width: 10.73px;
      }

      .cls-106 {
        stroke: #ff7044;
        stroke-width: 20.04px;
      }

      .cls-107 {
        stroke-width: 19.93px;
      }

      .cls-107, .cls-109 {
        stroke: #ff6f43;
      }

      .cls-108 {
        stroke: #ff3325;
        stroke-width: 10.01px;
      }

      .cls-109 {
        stroke-width: 19.81px;
      }

      .cls-110 {
        stroke: #ff1717;
        stroke-width: 5.48px;
      }

      .cls-111 {
        stroke: #ff7848;
        stroke-width: 21.36px;
      }

      .cls-112 {
        stroke: #ff5536;
        stroke-width: 15.63px;
      }

      .cls-113 {
        stroke-width: 16.7px;
      }

      .cls-114 {
        stroke-width: 7.99px;
      }

      .cls-114, .cls-116 {
        stroke: #ff261f;
      }

      .cls-115 {
        stroke: #ff5838;
        stroke-width: 16.1px;
      }

      .cls-116 {
        stroke-width: 7.87px;
      }

      .cls-117 {
        stroke-width: 8.34px;
      }

      .cls-117, .cls-184 {
        stroke: #ff2820;
      }

      .cls-118 {
        stroke: #ff5a39;
        stroke-width: 16.46px;
      }

      .cls-119 {
        stroke: #ff7244;
        stroke-width: 20.28px;
      }

      .cls-120 {
        stroke: #ff5b39;
        stroke-width: 16.58px;
      }

      .cls-121 {
        stroke: #ff5939;
        stroke-width: 16.34px;
      }

      .cls-122 {
        stroke: #ff7b49;
        stroke-width: 21.84px;
      }

      .cls-123 {
        stroke: #ff3b2a;
        stroke-width: 11.45px;
      }

      .cls-124 {
        stroke-width: 23.39px;
      }

      .cls-125 {
        stroke-width: 11.81px;
      }

      .cls-126 {
        stroke-width: 5.72px;
      }

      .cls-126, .cls-195 {
        stroke: #ff1818;
      }

      .cls-127 {
        stroke: #ff874f;
        stroke-width: 23.75px;
      }

      .cls-128 {
        stroke: #ff834d;
        stroke-width: 23.15px;
      }

      .cls-129 {
        stroke: #ff3d2a;
        stroke-width: 11.69px;
      }

      .cls-130 {
        stroke: #ff6940;
        stroke-width: 18.85px;
      }

      .cls-131 {
        stroke: #ff3124;
        stroke-width: 9.66px;
      }

      .cls-132 {
        stroke: #ff9757;
        stroke-width: 26.37px;
      }

      .cls-133 {
        stroke: #ff1919;
        stroke-width: 5.84px;
      }

      .cls-134 {
        stroke-width: 22.07px;
      }

      .cls-134, .cls-143 {
        stroke: #ff7d4a;
      }

      .cls-135 {
        stroke: #ff7c4a;
        stroke-width: 21.96px;
      }

      .cls-136 {
        stroke: #ff3929;
        stroke-width: 11.09px;
      }

      .cls-137 {
        stroke: #ff864f;
        stroke-width: 23.63px;
      }

      .cls-138 {
        stroke-width: 24.82px;
      }

      .cls-139 {
        stroke: #ff9858;
        stroke-width: 26.61px;
      }

      .cls-140 {
        stroke: #ff452e;
        stroke-width: 13px;
      }

      .cls-141 {
        stroke: #ff472f;
        stroke-width: 13.36px;
      }

      .cls-142 {
        stroke: #ff9857;
        stroke-width: 26.49px;
      }

      .cls-143 {
        stroke-width: 22.19px;
      }

      .cls-144 {
        stroke-width: 6.55px;
      }

      .cls-144, .cls-148 {
        stroke: #ff1e1b;
      }

      .cls-145 {
        stroke-width: 13.24px;
      }

      .cls-146 {
        stroke: #ff8f53;
        stroke-width: 25.06px;
      }

      .cls-147 {
        stroke: #ff432d;
        stroke-width: 12.64px;
      }

      .cls-148 {
        stroke-width: 6.67px;
      }

      .cls-149 {
        stroke: #ff8e53;
        stroke-width: 24.94px;
      }

      .cls-150 {
        stroke: #ff9958;
        stroke-width: 26.73px;
      }

      .cls-151 {
        stroke: #ff1d1a;
        stroke-width: 6.43px;
      }

      .cls-152 {
        stroke: #ff623c;
        stroke-width: 17.66px;
      }

      .cls-153 {
        stroke: #ff2921;
        stroke-width: 8.46px;
      }

      .cls-154 {
        stroke: #ff5e3b;
        stroke-width: 17.06px;
      }

      .cls-155 {
        stroke: #ff603c;
        stroke-width: 17.42px;
      }

      .cls-156 {
        stroke: #ff613c;
        stroke-width: 17.54px;
      }

      .cls-157 {
        stroke: #ff2b22;
        stroke-width: 8.82px;
      }

      .cls-158 {
        stroke: #ff3a29;
        stroke-width: 11.21px;
      }

      .cls-159 {
        stroke-width: 20.88px;
      }

      .cls-160 {
        stroke-width: 28.28px;
      }

      .cls-160, .cls-163 {
        stroke: #ffa35d;
      }

      .cls-161 {
        stroke: #ff5938;
        stroke-width: 16.22px;
      }

      .cls-162 {
        stroke: #ff2b21;
        stroke-width: 8.7px;
      }

      .cls-163 {
        stroke-width: 28.4px;
      }

      .cls-164 {
        stroke: #ff271f;
        stroke-width: 8.1px;
      }

      .cls-165 {
        stroke-width: 15.99px;
      }

      .cls-166 {
        stroke: #ff623d;
        stroke-width: 17.78px;
      }

      .cls-167 {
        stroke: #ffa55e;
        stroke-width: 28.64px;
      }

      .cls-168 {
        stroke: #ffa45e;
        stroke-width: 28.52px;
      }

      .cls-169 {
        stroke: #ff4d32;
        stroke-width: 14.31px;
      }

      .cls-170 {
        stroke-width: 6.91px;
      }

      .cls-170, .cls-173 {
        stroke: #ff201c;
      }

      .cls-171 {
        stroke-width: 14.19px;
      }

      .cls-172 {
        stroke-width: 27.09px;
      }

      .cls-172, .cls-174 {
        stroke: #ff9b59;
      }

      .cls-173 {
        stroke-width: 7.03px;
      }

      .cls-174 {
        stroke-width: 26.97px;
      }

      .cls-175 {
        stroke: #ff9a58;
        stroke-width: 26.85px;
      }

      .cls-176 {
        stroke: #ff4830;
        stroke-width: 13.48px;
      }

      .cls-177 {
        stroke: #ffa65e;
        stroke-width: 28.76px;
      }

      .cls-178 {
        stroke: #ff633d;
        stroke-width: 17.9px;
      }

      .cls-179 {
        stroke: #ff6e43;
        stroke-width: 19.69px;
      }

      .cls-180 {
        stroke: #ff6a41;
        stroke-width: 19.09px;
      }

      .cls-181 {
        stroke: #ff3125;
        stroke-width: 9.78px;
      }

      .cls-182 {
        stroke: #ff3225;
        stroke-width: 9.9px;
      }

      .cls-183 {
        stroke-width: 19.45px;
      }

      .cls-183, .cls-191 {
        stroke: #ff6c42;
      }

      .cls-184 {
        stroke-width: 8.22px;
      }

      .cls-185 {
        stroke-width: 9.18px;
      }

      .cls-186 {
        stroke: #ff653e;
        stroke-width: 18.25px;
      }

      .cls-187 {
        stroke-width: 18.01px;
      }

      .cls-187, .cls-189 {
        stroke: #ff643e;
      }

      .cls-188 {
        stroke: #ff6d42;
        stroke-width: 19.57px;
      }

      .cls-189 {
        stroke-width: 18.13px;
      }

      .cls-190 {
        stroke: #ff2d22;
        stroke-width: 9.06px;
      }

      .cls-191 {
        stroke-width: 19.33px;
      }

      .cls-192 {
        stroke: #ff7647;
        stroke-width: 21px;
      }

      .cls-193 {
        stroke: #ff3928;
        stroke-width: 10.97px;
      }

      .cls-194 {
        stroke: #ff804b;
        stroke-width: 22.55px;
      }

      .cls-195 {
        stroke-width: 5.6px;
      }

      .cls-196 {
        stroke: #ff7e4b;
        stroke-width: 22.31px;
      }

      .cls-197 {
        stroke: #ff7f4b;
        stroke-width: 22.43px;
      }

      .cls-198 {
        stroke: #ff3b29;
        stroke-width: 11.33px;
      }

      .cls-199 {
        stroke-width: 21.24px;
      }

      .cls-200 {
        stroke-width: 10.49px;
      }

      .cls-200, .cls-201 {
        stroke: #ff3627;
      }

      .cls-201 {
        stroke-width: 10.61px;
      }

      .cls-202 {
        stroke: #ff804c;
        stroke-width: 22.67px;
      }

      .cls-203 {
        stroke: #ff1617;
        stroke-width: 5.36px;
      }
    </style>
    <clipPath id="clippath">
      <rect class="cls-29" width="348.69" height="200"/>
    </clipPath>
  </defs>
  <g id="Layer_1-2" data-name="Layer 1">
    <g class="cls-204">
      <g>
        <path class="cls-92" d="m154.77,295.5s92-111.06,31-175.85-220,6.73-220,6.73c0,0,202-81.62,209,21.88"/>
        <path class="cls-89" d="m154.61,295.26s90.88-110.81,30.58-175.34c-60.57-64.48-218.53,6.68-218.12,6.73.22.03,201.48-81.14,208.77,21.89"/>
        <path class="cls-177" d="m154.46,295.02s89.92-110.72,30.16-174.83c-59.97-64.34-217.07,6.64-216.24,6.74.44.05,200.96-80.67,208.54,21.9"/>
        <path class="cls-167" d="m154.3,294.78s88.88-110.54,29.74-174.32c-59.45-64.11-215.6,6.59-214.36,6.74.66.08,200.44-80.2,208.31,21.91"/>
        <path class="cls-168" d="m154.14,294.55s87.84-110.37,29.32-173.8c-58.94-63.88-214.14,6.54-212.49,6.75.88.11,199.92-79.73,208.08,21.92"/>
        <path class="cls-163" d="m153.98,294.31s86.81-110.19,28.9-173.29c-58.42-63.66-212.67,6.5-210.61,6.75,1.09.13,199.4-79.26,207.85,21.93"/>
        <path class="cls-160" d="m153.82,294.07s85.77-110.02,28.48-172.78-211.21,6.45-208.73,6.75c1.31.16,198.88-78.78,207.62,21.95"/>
        <path class="cls-8" d="m153.66,293.83s84.74-109.84,28.06-172.27c-57.38-63.21-209.74,6.4-206.85,6.76,1.53.19,198.36-78.31,207.39,21.96"/>
        <path class="cls-10" d="m153.5,293.59s83.7-109.67,27.64-171.75c-56.86-62.98-208.27,6.36-204.97,6.76,1.75.21,197.85-77.84,207.16,21.97"/>
        <path class="cls-9" d="m153.34,293.35s82.67-109.49,27.23-171.24c-56.34-62.76-206.81,6.31-203.09,6.76,1.97.24,197.33-77.37,206.93,21.98"/>
        <path class="cls-12" d="m153.18,293.11s81.63-109.31,26.81-170.73c-55.82-62.53-205.34,6.26-201.21,6.77,2.19.27,196.81-76.9,206.7,21.99"/>
        <path class="cls-86" d="m153.02,292.88s80.6-109.13,26.39-170.22c-55.3-62.3-203.88,6.22-199.33,6.77,2.41.29,196.29-76.42,206.47,22"/>
        <path class="cls-85" d="m152.86,292.64s79.57-108.95,25.97-169.7c-54.77-62.08-202.41,6.17-197.46,6.77,2.63.32,195.77-75.95,206.24,22.01"/>
        <path class="cls-74" d="m152.7,292.4s78.54-108.78,25.55-169.19c-54.25-61.85-200.95,6.12-195.58,6.78,2.84.35,195.25-75.48,206.01,22.03"/>
        <path class="cls-75" d="m152.55,292.16s77.5-108.6,25.13-168.68c-53.72-61.63-199.48,6.08-193.7,6.78,3.06.37,194.73-75.01,205.77,22.04"/>
        <path class="cls-32" d="m152.39,291.92s76.47-108.42,24.71-168.17c-53.2-61.4-198.01,6.03-191.82,6.79,3.28.4,194.21-74.54,205.54,22.05"/>
        <path class="cls-172" d="m152.23,291.68s75.45-108.23,24.29-167.65c-52.67-61.18-196.55,5.98-189.94,6.79,3.5.43,193.69-74.06,205.31,22.06"/>
        <path class="cls-174" d="m152.07,291.44s74.42-108.05,23.87-167.14c-52.14-60.95-195.08,5.94-188.06,6.79,3.72.45,193.17-73.59,205.08,22.07"/>
        <path class="cls-175" d="m151.91,291.21s73.39-107.87,23.45-166.63c-51.61-60.73-193.62,5.89-186.18,6.8,3.94.48,192.65-73.12,204.85,22.08"/>
        <path class="cls-150" d="m151.75,290.97s72.36-107.69,23.03-166.12c-51.08-60.5-192.15,5.84-184.31,6.8,4.16.51,192.13-72.65,204.62,22.09"/>
        <path class="cls-139" d="m151.59,290.73s71.34-107.5,22.61-165.61c-50.55-60.28-190.69,5.79-182.43,6.8,4.38.53,191.61-72.18,204.39,22.11"/>
        <path class="cls-142" d="m151.43,290.49s70.31-107.32,22.19-165.09c-50.02-60.05-189.22,5.75-180.55,6.81,4.59.56,191.09-71.7,204.16,22.12"/>
        <path class="cls-132" d="m151.27,290.25s69.29-107.13,21.77-164.58-187.76,5.7-178.67,6.81c4.81.59,190.58-71.23,203.93,22.13"/>
        <path class="cls-79" d="m151.11,290.01s68.27-106.95,21.35-164.07c-48.95-59.6-186.29,5.65-176.79,6.81,5.03.61,190.06-70.76,203.7,22.14"/>
        <path class="cls-82" d="m150.95,289.77s67.25-106.76,20.93-163.56c-48.42-59.38-184.82,5.61-174.91,6.82,5.25.64,189.54-70.29,203.47,22.15"/>
        <path class="cls-81" d="m150.79,289.53s66.22-106.57,20.51-163.04S-12.05,132.05-1.73,133.31c5.47.67,189.02-69.82,203.24,22.16"/>
        <path class="cls-83" d="m150.63,289.3s65.21-106.39,20.1-162.53C123.39,67.84-11.16,132.28-.43,133.59c5.69.7,188.5-69.35,203.01,22.17"/>
        <path class="cls-73" d="m150.48,289.06s64.19-106.2,19.68-162.02c-46.8-58.7-180.43,5.47-169.28,6.83,5.91.72,187.98-68.87,202.78,22.19"/>
        <path class="cls-48" d="m150.32,288.82s63.17-106.01,19.26-161.51c-46.26-58.47-178.96,5.42-167.4,6.83,6.13.75,187.46-68.4,202.55,22.2"/>
        <path class="cls-62" d="m150.16,288.58s62.15-105.81,18.84-160.99c-45.72-58.25-177.5,5.37-165.52,6.84,6.34.78,186.94-67.93,202.32,22.21"/>
        <path class="cls-49" d="m150,288.34s61.14-105.62,18.42-160.48c-45.18-58.02-176.03,5.33-163.64,6.84,6.56.8,186.42-67.46,202.09,22.22"/>
        <path class="cls-50" d="m149.84,288.1s60.12-105.43,18-159.97c-44.64-57.79-174.56,5.28-161.76,6.84,6.78.83,185.9-66.99,201.86,22.23"/>
        <path class="cls-51" d="m149.68,287.86s59.11-105.23,17.58-159.46c-44.09-57.57-173.1,5.23-159.88,6.85,7,.86,185.38-66.51,201.63,22.24"/>
        <path class="cls-146" d="m149.52,287.63s58.1-105.04,17.16-158.94c-43.55-57.34-171.63,5.19-158,6.85,7.22.88,184.86-66.04,201.4,22.25"/>
        <path class="cls-149" d="m149.36,287.39s57.09-104.84,16.74-158.43c-43-57.11-170.17,5.14-156.13,6.85,7.44.91,184.34-65.57,201.17,22.27"/>
        <path class="cls-138" d="m149.2,287.15s56.08-104.64,16.32-157.92c-42.45-56.89-168.7,5.09-154.25,6.86,7.66.94,183.82-65.1,200.94,22.28"/>
        <path class="cls-15" d="m149.04,286.91s55.07-104.45,15.9-157.41c-41.9-56.66-167.24,5.05-152.37,6.86,7.88.96,183.3-64.63,200.71,22.29"/>
        <path class="cls-16" d="m148.88,286.67s54.06-104.25,15.48-156.9c-41.35-56.43-165.77,5-150.49,6.87,8.1.99,182.79-64.15,200.48,22.3"/>
        <path class="cls-18" d="m148.72,286.43s53.05-104.04,15.06-156.38c-40.8-56.2-164.3,4.95-148.61,6.87,8.31,1.02,182.27-63.68,200.25,22.31"/>
        <path class="cls-6" d="m148.57,286.19s52.05-103.84,14.64-155.87c-40.24-55.97-162.84,4.91-146.73,6.87,8.53,1.04,181.75-63.21,200.02,22.32"/>
        <path class="cls-57" d="m148.41,285.96s51.05-103.64,14.22-155.36c-39.69-55.74-161.37,4.86-144.85,6.88,8.75,1.07,181.23-62.74,199.78,22.33"/>
        <path class="cls-58" d="m148.25,285.72s50.04-103.43,13.8-154.85c-39.13-55.52-159.91,4.81-142.98,6.88,8.97,1.1,180.71-62.27,199.55,22.35"/>
        <path class="cls-46" d="m148.09,285.48s49.04-103.22,13.38-154.33c-38.57-55.29-158.44,4.76-141.1,6.88,9.19,1.12,180.19-61.79,199.32,22.36"/>
        <path class="cls-61" d="m147.93,285.24s48.04-103.01,12.97-153.82c-38.01-55.05-156.98,4.72-139.22,6.89,9.41,1.15,179.67-61.32,199.09,22.37"/>
        <path class="cls-127" d="m147.77,285s47.05-102.8,12.55-153.31c-37.45-54.82-155.51,4.67-137.34,6.89,9.63,1.18,179.15-60.85,198.86,22.38"/>
        <path class="cls-137" d="m147.61,284.76s46.05-102.59,12.13-152.8c-36.89-54.59-154.04,4.62-135.46,6.9,9.85,1.2,178.63-60.38,198.63,22.39"/>
        <path class="cls-22" d="m147.45,284.52s45.06-102.37,11.71-152.28c-36.32-54.36-152.58,4.58-133.58,6.9,10.06,1.23,178.11-59.91,198.4,22.4"/>
        <path class="cls-124" d="m147.29,284.29s44.06-102.16,11.29-151.77c-35.76-54.13-151.11,4.53-131.7,6.9,10.28,1.26,177.59-59.43,198.17,22.41"/>
        <path class="cls-24" d="m147.13,284.05s43.07-101.94,10.87-151.26c-35.19-53.89-149.65,4.48-129.82,6.91,10.5,1.28,177.07-58.96,197.94,22.43"/>
        <path class="cls-128" d="m146.97,283.81s42.08-101.72,10.45-150.75c-34.62-53.66-148.18,4.44-127.95,6.91,10.72,1.31,176.55-58.49,197.71,22.44"/>
        <path class="cls-13" d="m146.81,283.57s41.09-101.5,10.03-150.23c-34.05-53.42-146.72,4.39-126.07,6.91,10.94,1.34,176.03-58.02,197.48,22.45"/>
        <path class="cls-23" d="m146.65,283.33s40.1-101.27,9.61-149.72c-33.48-53.19-145.25,4.34-124.19,6.92,11.16,1.36,175.51-57.55,197.25,22.46"/>
        <path class="cls-25" d="m146.5,283.09s39.12-101.05,9.19-149.21c-32.9-52.95-143.79,4.3-122.31,6.92,11.38,1.39,175-57.07,197.02,22.47"/>
        <path class="cls-202" d="m146.34,282.85s38.14-100.82,8.77-148.7c-32.33-52.71-142.32,4.25-120.43,6.92,11.6,1.42,174.48-56.6,196.79,22.48"/>
        <path class="cls-194" d="m146.18,282.62s37.15-100.59,8.35-148.19c-31.75-52.47-140.85,4.2-118.55,6.93,11.81,1.44,173.96-56.13,196.56,22.49"/>
        <path class="cls-197" d="m146.02,282.38s36.17-100.35,7.93-147.67c-31.17-52.23-139.39,4.16-116.67,6.93,12.03,1.47,173.44-55.66,196.33,22.51"/>
        <path class="cls-196" d="m145.86,282.14s35.19-100.12,7.51-147.16c-30.59-51.99-137.92,4.11-114.8,6.94,12.25,1.5,172.92-55.19,196.1,22.52"/>
        <path class="cls-143" d="m145.7,281.9s34.22-99.88,7.09-146.65c-30.01-51.74-136.46,4.06-112.92,6.94,12.47,1.52,172.4-54.71,195.87,22.53"/>
        <path class="cls-134" d="m145.54,281.66s33.24-99.63,6.67-146.14c-29.42-51.5-134.99,4.02-111.04,6.94,12.69,1.55,171.88-54.24,195.64,22.54"/>
        <path class="cls-135" d="m145.38,281.42s32.27-99.39,6.25-145.62c-28.84-51.25-133.53,3.97-109.16,6.95,12.91,1.58,171.36-53.77,195.41,22.55"/>
        <path class="cls-122" d="m145.22,281.18s31.3-99.14,5.84-145.11c-28.25-51-132.06,3.92-107.28,6.95,13.13,1.6,170.84-53.3,195.18,22.56"/>
        <path class="cls-98" d="m145.06,280.95s30.33-98.89,5.42-144.6c-27.66-50.75-130.59,3.88-105.4,6.95,13.35,1.63,170.32-52.83,194.95,22.57"/>
        <path class="cls-96" d="m144.9,280.71s29.36-98.64,5-144.09c-27.07-50.5-129.13,3.83-103.52,6.96,13.56,1.66,169.8-52.35,194.72,22.59"/>
        <path class="cls-99" d="m144.74,280.47s28.4-98.38,4.58-143.57c-26.48-50.25-127.66,3.78-101.64,6.96,13.78,1.68,169.28-51.88,194.49,22.6"/>
        <path class="cls-111" d="m144.59,280.23s27.43-98.12,4.16-143.06c-25.89-49.99-126.2,3.73-99.77,6.96,14,1.71,168.76-51.41,194.26,22.61"/>
        <path class="cls-199" d="m144.43,279.99s26.47-97.85,3.74-142.55c-25.3-49.74-124.73,3.69-97.89,6.97,14.22,1.74,168.24-50.94,194.03,22.62"/>
        <path class="cls-100" d="m144.27,279.75s25.51-97.59,3.32-142.04c-24.7-49.48-123.27,3.64-96.01,6.97,14.44,1.76,167.73-50.47,193.79,22.63"/>
        <path class="cls-192" d="m144.11,279.51s24.55-97.31,2.9-141.52c-24.1-49.22-121.8,3.59-94.13,6.98,14.66,1.79,167.21-50,193.56,22.64"/>
        <path class="cls-159" d="m143.95,279.27s23.6-97.04,2.48-141.01c-23.51-48.95-120.33,3.55-92.25,6.98,14.88,1.82,166.69-49.52,193.33,22.65"/>
        <path class="cls-64" d="m143.79,279.04s14.62-93.82,2.06-140.5c-31.12-43.89-118.87,3.5-90.37,6.98,15.1,1.84,166.17-49.05,193.1,22.67"/>
        <path class="cls-68" d="m143.63,278.8s13.5-93.57,1.64-139.99c-30.69-43.59-117.4,3.45-88.49,6.99,15.31,1.87,165.65-48.58,192.87,22.68"/>
        <path class="cls-66" d="m143.47,278.56s12.37-93.32,1.22-139.48c-30.26-43.29-115.94,3.41-86.62,6.99,15.53,1.9,165.13-48.11,192.64,22.69"/>
        <path class="cls-72" d="m143.31,278.32s11.25-93.07.8-138.96c-29.83-42.98-114.47,3.36-84.74,6.99,15.75,1.92,164.61-47.64,192.41,22.7"/>
        <path class="cls-119" d="m143.15,278.08s10.13-92.82.38-138.45c-29.39-42.68-113.01,3.31-82.86,7,15.97,1.95,164.09-47.16,192.18,22.71"/>
        <path class="cls-102" d="m142.99,277.84s9.01-92.57-.04-137.94c-28.96-42.38-111.54,3.27-80.98,7,16.19,1.98,163.57-46.69,191.95,22.72"/>
        <path class="cls-106" d="m142.83,277.6s7.89-92.32-.46-137.43c-28.53-42.07-110.07,3.22-79.1,7,16.41,2,163.05-46.22,191.72,22.74"/>
        <path class="cls-107" d="m142.67,277.37s6.77-92.07-.88-136.91c-28.09-41.77-108.61,3.17-77.22,7.01,16.63,2.03,162.53-45.75,191.49,22.75"/>
        <path class="cls-109" d="m142.52,277.13s5.65-91.82-1.29-136.4c-27.66-41.47-107.14,3.13-75.34,7.01,16.85,2.06,162.01-45.28,191.26,22.76"/>
        <path class="cls-179" d="m142.36,276.89s4.52-91.57-1.71-135.89c-27.23-41.17-105.68,3.08-73.47,7.02,17.07,2.09,161.49-44.8,191.03,22.77"/>
        <path class="cls-188" d="m142.2,276.65s3.4-91.32-2.13-135.38c-26.79-40.86-104.21,3.03-71.59,7.02,17.28,2.11,160.97-44.33,190.8,22.78"/>
        <path class="cls-183" d="m142.04,276.41s2.28-91.07-2.55-134.86c-26.36-40.56-102.75,2.99-69.71,7.02,17.5,2.14,160.45-43.86,190.57,22.79"/>
        <path class="cls-191" d="m141.88,276.17s1.16-90.82-2.97-134.35c-25.93-40.26-101.28,2.94-67.83,7.03,17.72,2.17,159.94-43.39,190.34,22.8"/>
        <path class="cls-67" d="m141.72,275.93s.04-90.57-3.39-133.84c-25.5-39.95-99.82,2.89-65.95,7.03,17.94,2.19,159.42-42.92,190.11,22.82"/>
        <path class="cls-180" d="m141.56,275.7s-1.08-90.32-3.81-133.33c-25.06-39.65-98.35,2.85-64.07,7.03,18.16,2.22,158.9-42.44,189.88,22.83"/>
        <path class="cls-70" d="m141.4,275.46s-2.2-90.07-4.23-132.81c-24.63-39.35-96.88,2.8-62.19,7.04,18.38,2.25,158.38-41.97,189.65,22.84"/>
        <path class="cls-130" d="m141.24,275.22s-3.33-89.82-4.65-132.3c-24.2-39.05-95.42,2.75-60.31,7.04,18.6,2.27,157.86-41.5,189.42,22.85"/>
        <path class="cls-37" d="m141.08,274.98s-4.45-89.57-5.07-131.79c-23.76-38.74-93.95,2.7-58.44,7.04,18.82,2.3,157.34-41.03,189.19,22.86"/>
        <path class="cls-43" d="m140.92,274.74s-5.57-89.32-5.49-131.28c-23.33-38.44-92.49,2.66-56.56,7.05,19.03,2.33,156.82-40.56,188.96,22.87"/>
        <path class="cls-40" d="m140.76,274.5s-6.69-89.07-5.91-130.77c-22.9-38.14-91.02,2.61-54.68,7.05,19.25,2.35,156.3-40.08,188.73,22.88"/>
        <path class="cls-34" d="m140.6,274.26s-7.81-88.82-6.33-130.25c-22.46-37.83-89.56,2.56-52.8,7.06,19.47,2.38,155.78-39.61,188.5,22.9"/>
        <path class="cls-186" d="m140.45,274.03s-8.93-88.57-6.75-129.74c-22.03-37.53-88.09,2.52-50.92,7.06,19.69,2.41,155.26-39.14,188.27,22.91"/>
        <path class="cls-189" d="m140.29,273.79s-10.06-88.32-7.17-129.23c-21.6-37.23-86.62,2.47-49.04,7.06,19.91,2.43,154.74-38.67,188.04,22.92"/>
        <path class="cls-187" d="m140.13,273.55s-11.18-88.07-7.59-128.72c-21.17-36.93-85.16,2.42-47.16,7.07,20.13,2.46,154.22-38.2,187.8,22.93"/>
        <path class="cls-178" d="m139.97,273.31s-12.3-87.82-8.01-128.2c-20.73-36.62-83.69,2.38-45.29,7.07,20.35,2.49,153.7-37.72,187.57,22.94"/>
        <path class="cls-166" d="m139.81,273.07s-13.42-87.57-8.42-127.69c-20.3-36.32-82.23,2.33-43.41,7.07,20.57,2.51,153.18-37.25,187.34,22.95"/>
        <path class="cls-152" d="m139.65,272.83s-14.54-87.32-8.84-127.18c-19.87-36.02-80.76,2.28-41.53,7.08,20.78,2.54,152.66-36.78,187.11,22.96"/>
        <path class="cls-156" d="m139.49,272.59s-15.66-87.07-9.26-126.67c-19.43-35.71-79.3,2.24-39.65,7.08,21,2.57,152.15-36.31,186.88,22.98"/>
        <path class="cls-155" d="m139.33,272.36s-16.78-86.82-9.68-126.15c-19-35.41-77.83,2.19-37.77,7.08,21.22,2.59,151.63-35.84,186.65,22.99"/>
        <path class="cls-5" d="m139.17,272.12s-17.91-86.57-10.1-125.64c-18.57-35.11-76.36,2.14-35.89,7.09,21.44,2.62,151.11-35.36,186.42,23"/>
        <path class="cls-42" d="m139.01,271.88s-19.03-86.32-10.52-125.13c-18.13-34.81-74.9,2.1-34.01,7.09,21.66,2.65,150.59-34.89,186.19,23.01"/>
        <path class="cls-154" d="m138.85,271.64s-20.15-86.07-10.94-124.62c-17.7-34.5-73.43,2.05-32.13,7.1,21.88,2.67,150.07-34.42,185.96,23.02"/>
        <path class="cls-44" d="m138.69,271.4s-21.27-85.82-11.36-124.1c-17.27-34.2-71.97,2-30.26,7.1,22.1,2.7,149.55-33.95,185.73,23.03"/>
        <path class="cls-4" d="m138.54,271.16s-22.39-85.57-11.78-123.59c-16.84-33.9-70.5,1.96-28.38,7.1,22.32,2.73,149.03-33.48,185.5,23.04"/>
        <path class="cls-113" d="m138.38,270.92s-23.51-85.32-12.2-123.08c-16.4-33.59-69.04,1.91-26.5,7.11,22.53,2.75,148.51-33.01,185.27,23.06"/>
        <path class="cls-120" d="m138.22,270.68s-24.63-85.07-12.62-122.57c-15.97-33.29-67.57,1.86-24.62,7.11,22.75,2.78,147.99-32.53,185.04,23.07"/>
        <path class="cls-118" d="m138.06,270.45s-25.76-84.82-13.04-122.06c-15.54-32.99-66.1,1.82-22.74,7.11,22.97,2.81,147.47-32.06,184.81,23.08"/>
        <path class="cls-121" d="m137.9,270.21s-26.88-84.57-13.46-121.54c-15.1-32.69-64.64,1.77-20.86,7.12,23.19,2.83,146.95-31.59,184.58,23.09"/>
        <path class="cls-161" d="m137.74,269.97s-28-84.32-13.88-121.03c-14.67-32.38-63.17,1.72-18.98,7.12,23.41,2.86,146.43-31.12,184.35,23.1"/>
        <path class="cls-115" d="m137.58,269.73s-29.12-84.07-14.3-120.52c-14.24-32.08-61.71,1.67-17.11,7.12,23.63,2.89,145.91-30.65,184.12,23.11"/>
        <path class="cls-165" d="m137.42,269.49s-30.24-83.82-14.72-120.01c-13.8-31.78-60.24,1.63-15.23,7.13,23.85,2.91,145.39-30.17,183.89,23.12"/>
        <path class="cls-28" d="m137.26,269.25s-31.36-83.57-15.14-119.49c-13.37-31.47-58.78,1.58-13.35,7.13,24.07,2.94,144.88-29.7,183.66,23.14"/>
        <path class="cls-35" d="m137.1,269.01s-32.49-83.32-15.56-118.98c-12.94-31.17-57.31,1.53-11.47,7.14,24.29,2.97,144.36-29.23,183.43,23.15"/>
        <path class="cls-112" d="m136.94,268.78s-33.61-83.07-15.97-118.47c-12.51-30.87-55.84,1.49-9.59,7.14,24.5,2.99,143.84-28.76,183.2,23.16"/>
        <path class="cls-31" d="m136.78,268.54s-34.73-82.82-16.39-117.96c-12.07-30.57-54.38,1.44-7.71,7.14,24.72,3.02,143.32-28.29,182.97,23.17"/>
        <path class="cls-78" d="m136.62,268.3s-35.85-82.57-16.81-117.44c-11.64-30.26-52.91,1.39-5.83,7.15,24.94,3.05,142.8-27.81,182.74,23.18"/>
        <path class="cls-94" d="m136.47,268.06s-36.97-82.32-17.23-116.93c-11.21-29.96-51.45,1.35-3.95,7.15,25.16,3.07,142.28-27.34,182.51,23.19"/>
        <path class="cls-27" d="m136.31,267.82s-38.09-82.07-17.65-116.42c-10.77-29.66-49.98,1.3-2.08,7.15,25.38,3.1,141.76-26.87,182.28,23.2"/>
        <path class="cls-88" d="m136.15,267.58s-39.21-81.82-18.07-115.91c-10.34-29.35-48.52,1.25-.2,7.16,25.6,3.13,141.24-26.4,182.05,23.22"/>
        <path class="cls-90" d="m135.99,267.34s-40.34-81.57-18.49-115.39c-9.91-29.05-47.05,1.21,1.68,7.16,25.82,3.15,140.72-25.93,181.81,23.23"/>
        <path class="cls-1" d="m135.83,267.11s-41.46-81.32-18.91-114.88c-9.47-28.75-45.59,1.16,3.56,7.16,26.04,3.18,140.2-25.45,181.58,23.24"/>
        <path class="cls-3" d="m135.67,266.87s-42.58-81.07-19.33-114.37c-9.04-28.45-44.12,1.11,5.44,7.17,26.25,3.21,139.68-24.98,181.35,23.25"/>
        <path class="cls-91" d="m135.51,266.63s-43.7-80.82-19.75-113.86c-8.61-28.14-42.65,1.07,7.32,7.17,26.47,3.23,139.16-24.51,181.12,23.26"/>
        <path class="cls-95" d="m135.35,266.39s-44.82-80.57-20.17-113.35c-8.18-27.84-41.19,1.02,9.2,7.18,26.69,3.26,138.64-24.04,180.89,23.27"/>
        <path class="cls-169" d="m135.19,266.15s-45.94-80.32-20.59-112.83c-7.74-27.54-39.72.97,11.07,7.18,26.91,3.29,138.12-23.57,180.66,23.28"/>
        <path class="cls-171" d="m135.03,265.91s-47.06-80.07-21.01-112.32c-7.31-27.23-38.26.93,12.95,7.18,27.13,3.31,137.6-23.09,180.43,23.3"/>
        <path class="cls-21" d="m134.87,265.67s-48.19-79.82-21.43-111.81c-6.88-26.93-36.79.88,14.83,7.19,27.35,3.34,137.09-22.62,180.2,23.31"/>
        <path class="cls-11" d="m134.71,265.44s-49.31-79.57-21.85-111.3c-6.44-26.63-35.33.83,16.71,7.19,27.57,3.37,136.57-22.15,179.97,23.32"/>
        <path class="cls-76" d="m134.56,265.2s-50.43-79.32-22.27-110.78c-6.01-26.33-33.86.79,18.59,7.19,27.79,3.39,136.05-21.68,179.74,23.33"/>
        <path class="cls-77" d="m134.4,264.96s-51.55-79.07-22.69-110.27c-5.58-26.02-32.39.74,20.47,7.2,28,3.42,135.53-21.21,179.51,23.34"/>
        <path class="cls-33" d="m134.24,264.72s-52.67-78.82-23.1-109.76c-5.15-25.72-30.93.69,22.35,7.2,28.22,3.45,135.01-20.73,179.28,23.35"/>
        <path class="cls-176" d="m134.08,264.48s-53.79-78.57-23.52-109.25c-4.71-25.42-29.46.64,24.22,7.2,28.44,3.48,134.49-20.26,179.05,23.36"/>
        <path class="cls-141" d="m133.92,264.24s-54.91-78.32-23.94-108.73c-4.28-25.11-28,.6,26.1,7.21,28.66,3.5,133.97-19.79,178.82,23.38"/>
        <path class="cls-145" d="m133.76,264s-56.04-78.07-24.36-108.22c-3.85-24.81-26.53.55,27.98,7.21,28.88,3.53,133.45-19.32,178.59,23.39"/>
        <path class="cls-84" d="m133.6,263.77s-57.16-77.82-24.78-107.71c-3.41-24.51-25.07.5,29.86,7.22,29.1,3.56,132.93-18.85,178.36,23.4"/>
        <path class="cls-140" d="m133.44,263.53s-58.28-77.57-25.2-107.2c-2.98-24.21-23.6.46,31.74,7.22,29.32,3.58,132.41-18.37,178.13,23.41"/>
        <path class="cls-52" d="m133.28,263.29s-59.4-77.32-25.62-106.68c-2.55-23.9-22.13.41,33.62,7.22,29.54,3.61,131.89-17.9,177.9,23.42"/>
        <path class="cls-55" d="m133.12,263.05s-60.52-77.07-26.04-106.17c-2.11-23.6-20.67.36,35.5,7.23,29.75,3.64,131.37-17.43,177.67,23.43"/>
        <path class="cls-147" d="m132.96,262.81s-61.64-76.82-26.46-105.66c-1.68-23.3-19.2.32,37.38,7.23,29.97,3.66,130.85-16.96,177.44,23.44"/>
        <path class="cls-47" d="m132.8,262.57s-62.77-76.57-26.88-105.15c-1.25-22.99-17.74.27,39.25,7.23,30.19,3.69,130.33-16.49,177.21,23.46"/>
        <path class="cls-20" d="m132.64,262.33s-63.89-76.32-27.3-104.64c-.82-22.69-16.27.22,41.13,7.24,30.41,3.72,129.81-16.01,176.98,23.47"/>
        <path class="cls-19" d="m132.49,262.1s-65.01-76.07-27.72-104.12c-.38-22.39-14.81.18,43.01,7.24,30.63,3.74,129.3-15.54,176.75,23.48"/>
        <path class="cls-56" d="m132.33,261.86s-66.13-75.82-28.14-103.61c.05-22.09-13.34.13,44.89,7.24,30.85,3.77,128.78-15.07,176.52,23.49"/>
        <path class="cls-60" d="m132.17,261.62s-67.25-75.57-28.56-103.1c.48-21.78-11.87.08,46.77,7.25,31.07,3.8,128.26-14.6,176.29,23.5"/>
        <path class="cls-59" d="m132.01,261.38s-68.37-75.32-28.98-102.59c.92-21.48-10.41.04,48.65,7.25,31.29,3.82,127.74-14.13,176.06,23.51"/>
        <path class="cls-125" d="m131.85,261.14s-69.49-75.07-29.4-102.07c1.35-21.18-8.94-.01,50.53,7.26,31.51,3.85,127.22-13.66,175.82,23.52"/>
        <path class="cls-129" d="m131.69,260.9s-70.62-74.82-29.82-101.56c1.78-20.87-7.48-.06,52.4,7.26,31.72,3.88,126.7-13.18,175.59,23.54"/>
        <path class="cls-26" d="m131.53,260.66s-71.74-74.57-30.23-101.05c2.22-20.57-6.01-.1,54.28,7.26,31.94,3.9,126.18-12.71,175.36,23.55"/>
        <path class="cls-123" d="m131.37,260.42s-72.86-74.32-30.65-100.54c2.65-20.27-4.55-.15,56.16,7.27,32.16,3.93,125.66-12.24,175.13,23.56"/>
        <path class="cls-198" d="m131.21,260.19s-73.98-74.07-31.07-100.02c3.08-19.97-3.08-.2,58.04,7.27,32.38,3.96,125.14-11.77,174.9,23.57"/>
        <path class="cls-158" d="m131.05,259.95s-75.1-73.82-31.49-99.51c3.51-19.66-1.62-.24,59.92,7.27,32.6,3.98,124.62-11.3,174.67,23.58"/>
        <path class="cls-136" d="m130.89,259.71s-76.22-73.57-31.91-99c3.95-19.36-.15-.29,61.8,7.28,32.82,4.01,124.1-10.82,174.44,23.59"/>
        <path class="cls-193" d="m130.73,259.47s-77.34-73.32-32.33-98.49c4.38-19.06,1.32-.34,63.68,7.28,33.04,4.04,123.58-10.35,174.21,23.61"/>
        <path class="cls-101" d="m130.58,259.23s-78.47-73.07-32.75-97.97c4.81-18.75,2.78-.39,65.56,7.28,33.26,4.06,123.06-9.88,173.98,23.62"/>
        <path class="cls-105" d="m130.42,258.99s-79.59-72.82-33.17-97.46c5.25-18.45,4.25-.43,67.43,7.29,33.47,4.09,122.54-9.41,173.75,23.63"/>
        <path class="cls-201" d="m130.26,258.75s-80.71-72.57-33.59-96.95c5.68-18.15,5.71-.48,69.31,7.29,33.69,4.12,122.03-8.94,173.52,23.64"/>
        <path class="cls-200" d="m130.1,258.52s-81.83-72.32-34.01-96.44c6.11-17.85,7.18-.53,71.19,7.3,33.91,4.14,121.51-8.46,173.29,23.65"/>
        <path class="cls-65" d="m129.94,258.28s-82.95-72.07-34.43-95.93c6.55-17.54,8.64-.57,73.07,7.3,34.13,4.17,120.99-7.99,173.06,23.66"/>
        <path class="cls-53" d="m129.78,258.04s-84.07-71.82-34.85-95.41c6.98-17.24,10.11-.62,74.95,7.3,34.35,4.2,120.47-7.52,172.83,23.67"/>
        <path class="cls-103" d="m129.62,257.8s-85.2-71.57-35.27-94.9c7.41-16.94,11.58-.67,76.83,7.31,34.57,4.22,119.95-7.05,172.6,23.69"/>
        <path class="cls-108" d="m129.46,257.56s-86.32-71.32-35.69-94.39c7.84-16.63,13.04-.71,78.71,7.31,34.79,4.25,119.43-6.58,172.37,23.7"/>
        <path class="cls-182" d="m129.3,257.32s-87.44-71.07-36.11-93.88c8.28-16.33,14.51-.76,80.58,7.31,35.01,4.28,118.91-6.1,172.14,23.71"/>
        <path class="cls-181" d="m129.14,257.08s-88.56-70.82-36.53-93.36c8.71-16.03,15.97-.81,82.46,7.32,35.22,4.3,118.39-5.63,171.91,23.72"/>
        <path class="cls-131" d="m128.98,256.85s-89.68-70.57-36.95-92.85c9.14-15.73,17.44-.85,84.34,7.32,35.44,4.33,117.87-5.16,171.68,23.73"/>
        <path class="cls-71" d="m128.82,256.61s-90.8-70.32-37.36-92.34c9.58-15.42,18.9-.9,86.22,7.32,35.66,4.36,117.35-4.69,171.45,23.74"/>
        <path class="cls-38" d="m128.66,256.37s-91.92-70.07-37.78-91.83c10.01-15.12,20.37-.95,88.1,7.33,35.88,4.38,116.83-4.22,171.22,23.75"/>
        <path class="cls-39" d="m128.51,256.13s-93.05-69.82-38.2-91.31c10.44-14.82,21.84-.99,89.98,7.33,36.1,4.41,116.31-3.74,170.99,23.77"/>
        <path class="cls-185" d="m128.35,255.89s-94.17-69.57-38.62-90.8c10.88-14.51,23.3-1.04,91.86,7.34,36.32,4.44,115.79-3.27,170.76,23.78"/>
        <path class="cls-190" d="m128.19,255.65s-95.29-69.32-39.04-90.29c11.31-14.21,24.77-1.09,93.73,7.34,36.54,4.46,115.27-2.8,170.53,23.79"/>
        <path class="cls-45" d="m128.03,255.41s-96.41-69.07-39.46-89.78c11.74-13.91,26.23-1.13,95.61,7.34,36.76,4.49,114.75-2.33,170.3,23.8"/>
        <path class="cls-157" d="m127.87,255.18s-97.53-68.82-39.88-89.26c12.17-13.61,27.7-1.18,97.49,7.35,36.97,4.52,114.24-1.86,170.07,23.81"/>
        <path class="cls-162" d="m127.71,254.94s-98.65-68.57-40.3-88.75c12.61-13.3,29.16-1.23,99.37,7.35,37.19,4.54,113.72-1.38,169.83,23.82"/>
        <path class="cls-41" d="m127.55,254.7s-99.77-68.32-40.72-88.24c13.04-13,30.63-1.27,101.25,7.35,37.41,4.57,113.2-.91,169.6,23.83"/>
        <path class="cls-153" d="m127.39,254.46s-100.9-68.07-41.14-87.73c13.47-12.7,32.1-1.32,103.13,7.36,37.63,4.6,112.68-.44,169.37,23.85"/>
        <path class="cls-117" d="m127.23,254.22s-102.02-67.82-41.56-87.22c13.91-12.39,33.56-1.37,105.01,7.36,37.85,4.62,112.16.03,169.14,23.86"/>
        <path class="cls-184" d="m127.07,253.98s-103.14-67.57-41.98-86.7c14.34-12.09,35.03-1.42,106.89,7.36,38.07,4.65,111.64.5,168.91,23.87"/>
        <path class="cls-164" d="m126.91,253.74s-104.26-67.32-42.4-86.19c14.77-11.79,36.49-1.46,108.76,7.37,38.29,4.68,111.12.98,168.68,23.88"/>
        <path class="cls-114" d="m126.75,253.51s-105.38-67.07-42.82-85.68c15.21-11.49,37.96-1.51,110.64,7.37,38.51,4.7,110.6,1.45,168.45,23.89"/>
        <path class="cls-116" d="m126.59,253.27s-102.51-56.42-43.24-85.17c17.3-8.39,39.42-1.56,112.52,7.38,38.72,4.73,110.08,1.92,168.22,23.9"/>
        <path class="cls-36" d="m126.44,253.03s-103.93-56.62-43.66-84.65c17.6-8.18,40.89-1.6,114.4,7.38,38.94,4.76,109.56,2.39,167.99,23.91"/>
        <path class="cls-30" d="m126.28,252.79s-105.34-56.83-44.08-84.14c17.9-7.98,42.35-1.65,116.28,7.38,39.16,4.78,109.04,2.86,167.76,23.93"/>
        <path class="cls-93" d="m126.12,252.55s-106.74-57.03-44.49-83.63c18.22-7.78,43.82-1.7,118.16,7.39,39.38,4.81,108.52,3.33,167.53,23.94"/>
        <path class="cls-87" d="m125.96,252.31s-108.12-57.24-44.91-83.12c18.54-7.59,45.29-1.74,120.04,7.39,39.6,4.84,108,3.81,167.3,23.95"/>
        <path class="cls-7" d="m125.8,252.07s-109.49-57.45-45.33-82.6c18.86-7.39,46.75-1.79,121.91,7.39,39.82,4.87,107.48,4.28,167.07,23.96"/>
        <path class="cls-2" d="m125.64,251.84s-110.85-57.66-45.75-82.09c19.19-7.2,48.22-1.84,123.79,7.4,40.04,4.89,106.96,4.75,166.84,23.97"/>
        <path class="cls-173" d="m125.48,251.6s-112.2-57.87-46.17-81.58c19.53-7.01,49.68-1.88,125.67,7.4,40.26,4.92,106.45,5.22,166.61,23.98"/>
        <path class="cls-170" d="m125.32,251.36s-113.53-58.08-46.59-81.07c19.88-6.83,51.15-1.93,127.55,7.4,40.48,4.95,105.93,5.69,166.38,23.99"/>
        <path class="cls-80" d="m125.16,251.12s-114.85-58.29-47.01-80.55c20.23-6.64,52.61-1.98,129.43,7.41,40.69,4.97,105.41,6.17,166.15,24.01"/>
        <path class="cls-148" d="m125,250.88s-116.16-58.49-47.43-80.04c20.58-6.45,54.08-2.02,131.31,7.41,40.91,5,104.89,6.64,165.92,24.02"/>
        <path class="cls-144" d="m124.84,250.64s-117.45-58.69-47.85-79.53c20.94-6.27,55.55-2.07,133.19,7.42,41.13,5.03,104.37,7.11,165.69,24.03"/>
        <path class="cls-151" d="m124.68,250.4s-118.74-58.89-48.27-79.02c21.31-6.09,57.01-2.12,135.07,7.42,41.35,5.05,103.85,7.58,165.46,24.04"/>
        <path class="cls-54" d="m124.53,250.16s-120.01-59.08-48.69-78.51c21.68-5.9,58.48-2.16,136.94,7.42,41.57,5.08,103.33,8.05,165.23,24.05"/>
        <path class="cls-63" d="m124.37,249.93S3.09,190.66,75.26,171.93c22.05-5.72,59.94-2.21,138.82,7.43,41.79,5.11,102.81,8.53,165,24.06"/>
        <path class="cls-17" d="m124.21,249.69S1.68,190.24,74.68,172.21c22.43-5.54,61.41-2.26,140.7,7.43,42.01,5.13,102.29,9,164.77,24.07"/>
        <path class="cls-14" d="m124.05,249.45S.28,189.82,74.1,172.48c22.82-5.36,62.87-2.3,142.58,7.43,42.23,5.16,101.77,9.47,164.54,24.09"/>
        <path class="cls-133" d="m123.89,249.21S-1.11,189.41,73.52,172.75c23.21-5.18,64.34-2.35,144.46,7.44,42.44,5.19,101.25,9.94,164.31,24.1"/>
        <path class="cls-126" d="m123.73,248.97S-2.5,189.01,72.94,173.03c23.6-5,65.81-2.4,146.34,7.44,42.66,5.21,100.73,10.41,164.08,24.11"/>
        <path class="cls-195" d="m123.57,248.73S-3.88,188.61,72.36,173.3c24-4.82,67.27-2.45,148.22,7.44,42.88,5.24,100.21,10.89,163.85,24.12"/>
        <path class="cls-110" d="m123.41,248.49S-5.24,188.22,71.79,173.58c24.4-4.64,68.74-2.49,150.09,7.45,43.1,5.27,99.69,11.36,163.61,24.13"/>
        <path class="cls-203" d="m123.25,248.26S-6.6,187.83,71.21,173.85c24.8-4.46,70.2-2.54,151.97,7.45,43.32,5.29,99.18,11.83,163.38,24.14"/>
        <path class="cls-104" d="m123.09,248.02S-7.96,187.46,70.63,174.12c25.21-4.28,71.67-2.59,153.85,7.46,43.54,5.32,98.66,12.3,163.15,24.15"/>
        <path class="cls-97" d="m122.93,247.78s-132.24-60.7-52.88-73.38c25.62-4.1,73.13-2.63,155.73,7.46,43.76,5.35,98.14,12.77,162.92,24.17"/>
        <path class="cls-69" d="m122.77,247.54s-299-136.31,267-41.23"/>
      </g>
    </g>
  </g>
</svg>